<svg xmlns="http://www.w3.org/2000/svg" style="enable-background:new 0 0 1200 300" xml:space="preserve" viewBox="182.59 87.84 834.81 124.33"><style>.st6{fill:#293745}</style><g id="Main_Logos"><path d="M1005.77 194.19H861.31a20.842 20.842 0 0 1-9.92 12.19l145.84-3.03c4.65-.1 8.6-3.41 9.51-7.97.14-.61-.34-1.19-.97-1.19z" style="fill:gold"></path><path d="M861.31 194.19H716.75c0 .02 0 .04-.01.06-1.61 7.24-9.28 12.41-13.56 15.2l81.07-1.68 67.14-1.39c4.68-2.56 8.3-6.88 9.92-12.19z" style="fill:#00d1ff"></path><path d="M592.3 194.19c-7.12 0-13.52 3.61-17.31 9.23-.95 1.42-1.73 2.97-2.32 4.62-.34.95-.64 1.92-.84 2.93a1 1 0 0 0 1 1.2l99.16-2.06 31.21-.65c6.69-2.32 11.95-7.96 13.56-15.2 0-.02 0-.04.01-.06H592.3z" style="fill:#6559ff"></path><g><path class="st6" d="M1009.06 119.48c-5.57-5.43-12.8-8.14-21.71-8.14-5.78 0-11.18 1.03-16.2 3.08s-9.28 4.84-12.77 8.38c-3.5 3.54-6.25 7.74-8.26 12.63-2.01 4.88-3.02 10.08-3.02 15.59 0 5.43 1.21 10.37 3.63 14.82 2.42 4.45 5.88 7.98 10.37 10.58 4.49 2.6 9.57 3.9 15.23 3.9 8.36 0 15.89-2.12 22.59-6.36 5.77-3.65 9.73-7.3 12.85-13.06.72-1.33-.25-2.96-1.76-2.96H993.3c-1.09 0-2.1.47-2.87 1.24-1.02 1.02-2.05 1.49-3.77 2.34-2.29 1.13-4.82 1.15-7.52 1.15-3.83 0-6.76-.98-8.79-2.93-2.03-1.95-3.07-4.84-3.11-8.67h40.14c5.29 0 9.75-4.12 9.99-9.41.03-.58.04-1.16.03-1.73.01-8.21-2.77-15.02-8.34-20.45zm-12.99 19.21H971.7c-.78 0-1.26-.86-.86-1.53 1.44-2.42 3.23-4.39 5.38-5.92 2.58-1.84 5.58-2.75 9.02-2.75 3.48 0 6.24.87 8.29 2.61 1.79 1.52 2.96 3.64 3.52 6.37.13.63-.34 1.22-.98 1.22zM422.06 111.33c-5.78 0-11.18 1.03-16.2 3.08s-9.28 4.84-12.77 8.38c-3.5 3.54-6.25 7.74-8.26 12.63-2.01 4.88-3.02 10.08-3.02 15.59 0 5.43 1.21 10.37 3.63 14.82 2.42 4.45 5.88 7.98 10.37 10.58 4.49 2.6 9.57 3.9 15.23 3.9 8.36 0 15.89-2.12 22.59-6.36 5.77-3.65 9.73-7.3 12.85-13.06.72-1.33-.25-2.96-1.76-2.96h-16.71c-1.09 0-2.1.47-2.87 1.24-1.02 1.02-2.05 1.49-3.77 2.34-2.29 1.13-4.82 1.15-7.52 1.15-3.83 0-6.76-.98-8.79-2.93-1.84-1.76-2.86-4.29-3.07-7.59a1.01 1.01 0 0 1 1-1.08h39.1c5.29 0 9.75-4.12 9.99-9.41.03-.58.04-1.16.03-1.73 0-8.2-2.78-15.02-8.35-20.45-5.55-5.42-12.79-8.14-21.7-8.14zm8.72 27.36h-24.37c-.78 0-1.26-.86-.86-1.53 1.44-2.42 3.23-4.39 5.38-5.92 2.58-1.84 5.58-2.75 9.02-2.75 3.48 0 6.24.87 8.29 2.61 1.79 1.52 2.96 3.64 3.52 6.37.13.63-.34 1.22-.98 1.22zM384.84 123.62l1.37-6.85c.25-1.24-.7-2.39-1.96-2.39h-11.82c-.63 0-1.1-.57-.98-1.19l.6-3.15c.31-1.68 1.05-3.01 2.23-3.98 1.17-.98 2.62-1.46 4.34-1.46h1.73c4.76 0 8.86-3.35 9.8-8.01l1.29-6.35c.25-1.24-.7-2.4-1.96-2.4H376.4c-6.76 0-12.21 1.74-16.35 5.21-4.14 3.48-6.84 8.44-8.09 14.88l-1.13 5.64c-.09.47-.5.8-.98.8h-5.28c-2.86 0-5.32 2.02-5.88 4.82l-2.01 10.07c-.25 1.24.7 2.39 1.96 2.39h7.12c.63 0 1.1.58.98 1.2l-8.6 42.99c-.25 1.24.7 2.39 1.96 2.39h10.87c4.77 0 8.87-3.36 9.81-8.04l7.55-37.74c.09-.47.5-.8.98-.8h5.75c4.74.01 8.85-3.35 9.78-8.03zM780.89 90.06h-10.81c-4.77 0-8.87 3.36-9.81 8.04l-14.59 72.97c-.74 3.71 2.1 7.18 5.88 7.18h12.49a2 2 0 0 0 1.96-1.61l16.84-84.18c.25-1.24-.7-2.4-1.96-2.4zM830.51 113.44h-13.05a1 1 0 0 1-.98-1.19l3.04-15.34c.24-1.24-.7-2.39-1.96-2.39h-1.25c-.5 0-.98.18-1.34.52l-34.7 31.47-.52 2.59c-.25 1.24.7 2.39 1.96 2.39h8.47c.63 0 1.11.57.98 1.19-.36 1.79-.81 4.01-1.34 6.66-1.41 7.07-2.3 11.67-2.67 13.8-.37 2.13-.56 3.94-.56 5.42 0 6.06 1.9 10.85 5.71 14.38 3.81 3.54 9.05 5.3 15.73 5.3h3.87c4.77 0 8.87-3.36 9.81-8.04l1.78-8.9c.25-1.24-.7-2.39-1.96-2.39h-5.47c-2.34 0-4.14-.54-5.39-1.61s-1.88-2.63-1.88-4.66c0-.96 1.29-7.74 3.88-20.35.1-.47.51-.81.98-.81h7.49c4.77 0 8.88-3.37 9.81-8.06l1.51-7.6c.26-1.23-.69-2.38-1.95-2.38zM505.48 113.44h-13.05a1 1 0 0 1-.98-1.19l3.04-15.34c.25-1.24-.7-2.39-1.96-2.39h-1.25c-.5 0-.98.18-1.34.52l-34.7 31.47-.52 2.59c-.25 1.24.7 2.39 1.96 2.39h8.47c.63 0 1.11.57.98 1.19-.36 1.79-.81 4.01-1.34 6.66-1.41 7.07-2.3 11.67-2.67 13.8-.37 2.13-.56 3.94-.56 5.42 0 6.06 1.9 10.85 5.71 14.38 3.81 3.54 9.05 5.3 15.73 5.3h3.87c4.77 0 8.87-3.36 9.81-8.04l1.78-8.9c.25-1.24-.7-2.39-1.96-2.39h-5.47c-2.34 0-4.14-.54-5.39-1.61s-1.88-2.63-1.88-4.66c0-.96 1.29-7.74 3.88-20.35.1-.47.51-.81.98-.81h7.49c4.77 0 8.88-3.37 9.81-8.06l1.51-7.6c.26-1.23-.69-2.38-1.95-2.38zM900.75 113.44h-10.86c-4.77 0-8.88 3.37-9.81 8.05l-5.37 26.99c-.74 3.67-2.26 6.65-4.54 8.94s-4.99 3.43-8.12 3.43c-5.55 0-8.32-2.48-8.32-7.44 0-.62.06-1.39.18-2.29.19-1.25 2.51-13.01 6.96-35.28.25-1.24-.7-2.39-1.96-2.39h-10.85a10 10 0 0 0-9.8 7.99c-.45 2.2-.94 4.59-1.46 7.18-2.27 11.02-3.62 17.77-4.07 20.27-.45 2.5-.67 4.75-.67 6.74 0 7.34 2.48 13.29 7.44 17.84 4.96 4.55 11.56 6.83 19.8 6.83 9.53 0 17.5-2.49 23.91-7.47 6.41-4.98 10.51-11.94 12.3-20.89l7.2-36.1a2 2 0 0 0-1.96-2.4zM747.47 113.44h-10.86c-4.77 0-8.88 3.37-9.81 8.05l-5.37 26.99c-.74 3.67-2.26 6.65-4.54 8.94s-4.99 3.43-8.12 3.43c-5.55 0-8.32-2.48-8.32-7.44 0-.62.06-1.39.18-2.29.19-1.25 2.51-13.01 6.96-35.28.25-1.24-.7-2.39-1.96-2.39h-10.85a10 10 0 0 0-9.8 7.99c-.45 2.2-.94 4.59-1.46 7.18-2.27 11.02-3.62 17.77-4.07 20.27-.45 2.5-.67 4.75-.67 6.74 0 7.34 2.48 13.29 7.44 17.84 4.96 4.55 11.56 6.83 19.8 6.83 9.53 0 17.5-2.49 23.91-7.47 6.41-4.98 10.51-11.94 12.3-20.89l7.2-36.1a2 2 0 0 0-1.96-2.4zM950.24 124.84l1.85-9.31c.25-1.24-.7-2.39-1.96-2.39h-3.83c-7.04 0-13.08 2-18.13 6.01-.55.44-1.38.15-1.57-.53l-1.05-3.73a2.004 2.004 0 0 0-1.93-1.46h-4.46c-4.77 0-8.87 3.37-9.81 8.04l-9.91 49.59c-.74 3.71 2.1 7.18 5.88 7.18h12.49a2 2 0 0 0 1.96-1.61l6.53-32.55c.9-3.95 2.44-6.8 4.63-8.55 2.19-1.76 5.27-2.64 9.26-2.64h.23c4.78 0 8.89-3.37 9.82-8.05zM226.71 92.52c-7.23 0-13.53 1.11-18.9 3.34-5.37 2.23-9.62 5.66-12.74 10.31-3.13 4.65-4.69 10.25-4.69 16.82 0 8.13 5 14 12.27 17.11 5.47 2.34 11.45 3.21 17.07 5.17 4.66 1.62 8.49 4.98 6.02 10.2-1.86 3.92-6.51 5.71-10.62 5.71-6.06 0-8.71-5.18-9.68-7.89a1.989 1.989 0 0 0-2.26-1.27l-18.16 3.53c-1.55.3-2.59 1.74-2.41 3.3.64 5.66 3.17 11.91 7.63 15.5 5.21 4.2 12.35 6.3 21.42 6.3 7.46 0 14.05-1.21 19.78-3.63 10.09-4.27 17.22-13.67 18.4-24.61.53-4.9-.42-9.91-2.92-14.02a18.312 18.312 0 0 0-5.23-5.56c-6.59-4.55-14.91-5.11-22.23-7.93-2.23-.86-5.01-2.01-5.86-4.46-1.09-3.15.99-6.43 3.78-7.85 2.43-1.24 5.89-1.54 8.53-.94 3.19.72 5.05 3.15 5.37 6.11.12 1.13 1.24 1.88 2.36 1.67l17.69-3.44c1.53-.3 2.57-1.71 2.42-3.26-1.71-16.97-18.95-20.21-27.04-20.21zM577.14 113.44h-10.72c-3.52 0-6.78 1.85-8.58 4.87l-16.82 28.11c-.07.11-.15.2-.24.27-.55.44-1.44.19-1.6-.58l-4.99-24.65a9.992 9.992 0 0 0-9.8-8.01h-9.01c-2.61 0-4.52 2.45-3.88 4.98l13.74 54.36-2.7 4.54-4.66 7.82a19.907 19.907 0 0 0-2.41 6.25c-.11.55-.19 1.1-.26 1.65-.36 3.07-.02 6.2 1.05 9.15.28.78.62 1.56 1.01 2.31l1.23 2.4 2.15 4.19c.47.91 1.66 1.05 2.34.37.08-.08.16-.16.22-.27l2.58-4.14 2.87-4.61 5.87-9.41 1.03-1.65.69-1.11 5.08-8.11 16.11-25.72 23.1-36.89c1.66-2.66-.26-6.12-3.4-6.12zM646.93 116.84c2.45 2.15 4.14 4.95 5.07 8.39.28 1.02 1.27 1.67 2.31 1.47l16.59-3.16c1.55-.29 2.6-1.73 2.42-3.29-.56-4.98-3.27-15.58-15.81-23.53-5.45-3.45-11.92-4.69-18.84-4.69-7.15 0-13.95 1.32-20.39 3.96s-11.99 6.21-16.64 10.72c-4.65 4.51-8.34 9.94-11.07 16.29-2.74 6.35-4.1 13.08-4.1 20.19 0 6.95 1.55 13.23 4.66 18.84 8.76 15.81 29.1 21.47 45.82 17.49 14.32-3.41 33.35-15.1 35.9-37.71.32-2.81-2.66-3.42-4.04-1.07-10.19 17.32-38.17 30.22-53.39 15.14-10.26-10.17-6.56-23.92.25-32.6 6.75-8.64 21.99-14.55 31.26-6.44zM326.65 113.44h-6.87c-1.38 0-2.66.71-3.39 1.88l-2.07 3.31c-.35.55-1.11.62-1.57.16-4.95-4.93-11.28-7.4-18.98-7.4-5.2 0-10.18 1.01-14.94 3.02-4.77 2.01-8.93 4.76-12.48 8.23-3.56 3.48-6.39 7.71-8.5 12.71-2.11 5-3.16 10.33-3.16 16 0 8.63 2.68 15.62 8.06 20.95 5.37 5.33 12.2 8 20.48 8 7.28 0 14-2.06 20.15-6.17.59-.4 1.4-.09 1.55.61l.41 1.92c.2.92 1.01 1.59 1.96 1.59h5.53c4.77 0 8.87-3.37 9.81-8.04l9.91-49.59c.73-3.72-2.11-7.18-5.9-7.18zm-25.4 42.01c-3.54 3.67-7.69 5.51-12.45 5.51-3.75 0-6.74-1.09-8.96-3.28-2.23-2.19-3.34-5.08-3.34-8.67 0-4.96 1.75-9.27 5.24-12.92 3.5-3.65 7.61-5.48 12.33-5.48 3.75 0 6.77 1.1 9.05 3.31 2.29 2.21 3.43 5.11 3.43 8.7 0 4.88-1.77 9.16-5.3 12.83z"></path></g></g></svg>