<svg width="37" height="35" viewBox="0 0 37 35" fill="none" xmlns="http://www.w3.org/2000/svg">
<path d="M36.7267 0H0V34.4021H36.7267V0Z" fill="#8DE5FF"/>
<path d="M25.6809 6.11128C26.1076 5.89314 26.5615 5.7977 27.0085 5.81133C27.0085 5.81133 29.7112 5.61364 32.6916 10.3242L27.7672 11.2718C27.5572 11.3399 27.3472 11.3808 27.1372 11.3945C26.0535 11.4763 24.9764 10.9036 24.4549 9.86746C23.764 8.49042 24.3126 6.80662 25.6809 6.11128Z" fill="#076F43"/>
<path d="M28.9223 9.12836C29.148 9.19131 29.2608 8.8696 29.0422 8.78568C28.9646 8.7577 28.8871 8.72274 28.8095 8.69476C27.7378 8.29613 26.5673 8.1143 25.3898 8.17724C24.2193 8.24018 23.0489 8.5479 21.9701 9.06542C20.8983 9.58295 19.9112 10.2893 19.0651 11.1355C18.642 11.5551 18.2401 12.0097 17.8876 12.5063C17.528 12.9958 17.2107 13.5133 16.9357 14.0518C16.3857 15.1288 15.9909 16.2828 15.73 17.4577C15.4691 18.6326 15.3422 19.8285 15.3281 21.0314C15.314 22.2343 15.4056 23.4372 15.6313 24.6471L18.8535 23.8568C18.5433 22.9127 18.3318 21.9126 18.2119 20.8985C18.092 19.8845 18.0709 18.8564 18.1555 17.8354C18.3318 15.8002 18.9593 13.8001 20.2496 12.1915C20.8913 11.3803 21.6598 10.6669 22.5412 10.1075C23.4226 9.54798 24.4168 9.14934 25.4673 8.9745C26.5179 8.79267 27.6179 8.82764 28.6826 9.0864C28.7743 9.0934 28.8448 9.10738 28.9223 9.12836Z" fill="#0AAD69"/>
<path d="M15.3571 24.9416L19.0056 24.2057C18.6685 23.3472 18.4 22.6262 18.2698 21.704C18.2085 21.2525 18.1379 20.6903 18.1226 20.2324L15.7172 17.5835C15.6252 17.857 15.5409 18.1304 15.472 18.4039C15.1885 19.4723 15.0506 20.5598 15.0353 21.6536C15.0123 22.7475 15.1195 23.8413 15.3571 24.9416Z" fill="#076F43"/>
<path d="M10.6436 11.6799C10.3331 11.4065 9.9742 11.2365 9.60843 11.1626C9.60843 11.1626 7.42761 10.468 4.14258 14.0077L8.01422 15.7813C8.17295 15.8774 8.33859 15.9513 8.51112 16.0104C9.38759 16.2838 10.3676 15.9956 10.9818 15.1901C11.7892 14.126 11.6374 12.5519 10.6436 11.6799Z" fill="#076F43"/>
<path d="M7.53451 13.6119C7.36488 13.6332 7.31541 13.3845 7.48503 13.3489C7.54158 13.3347 7.60519 13.3205 7.66173 13.3063C8.48159 13.1286 9.35093 13.1215 10.192 13.2921C11.0331 13.4627 11.8459 13.818 12.5668 14.3085C13.2877 14.7989 13.9238 15.4244 14.4468 16.1352C14.7083 16.4906 14.9486 16.8673 15.1536 17.2653C15.3585 17.6633 15.5352 18.0756 15.6766 18.502C15.9593 19.355 16.1219 20.2363 16.1784 21.1248C16.242 22.0133 16.2067 22.9017 16.0865 23.7902C15.9664 24.6716 15.7685 25.5458 15.4787 26.413L13.2311 25.489C13.5563 24.8279 13.8178 24.1172 14.0157 23.3851C14.2136 22.653 14.3408 21.8995 14.3832 21.1461C14.4751 19.6393 14.2348 18.104 13.4714 16.782C13.0968 16.1138 12.6162 15.5097 12.0367 15.005C11.4571 14.5004 10.7786 14.1024 10.0436 13.8607C9.30145 13.6119 8.50279 13.5195 7.70414 13.5977C7.64759 13.5977 7.59105 13.6048 7.53451 13.6119Z" fill="#0AAD69"/>
<path d="M18.1758 22.9685L17.3812 23.3035C16.9251 23.4989 16.4415 23.5965 15.944 23.5896L13.491 23.5756C13.2077 23.5756 12.9451 23.7431 12.8277 24.0083L11.5494 26.9252C11.3835 27.309 11.6599 27.7417 12.0745 27.7417C12.8553 27.7417 13.5808 28.1604 13.9747 28.8443C14.6518 30.0097 16.1996 30.3027 17.243 29.4653L18.7839 28.2302C19.1708 27.9161 19.6545 27.7487 20.152 27.7487H20.9328C21.3681 27.7487 21.6445 27.2811 21.4372 26.8903L19.5854 23.4709C19.3159 22.9615 18.701 22.7452 18.1758 22.9685Z" fill="#FFAC00"/>
<path fill-rule="evenodd" clip-rule="evenodd" d="M8.50213 12.3286C8.55688 12.2713 8.6463 12.2706 8.70185 12.3271L9.12982 12.7619L9.13019 12.7623C9.5517 13.1969 9.54543 13.9058 9.10112 14.327L8.49988 14.8957C8.44241 14.9501 8.35308 14.9461 8.30035 14.8869C8.24762 14.8276 8.25146 14.7355 8.30893 14.6812L8.90996 14.1126C8.90999 14.1126 8.91002 14.1126 8.91005 14.1125C8.91006 14.1125 8.91005 14.1125 8.91005 14.1125C9.23397 13.8054 9.24019 13.2879 8.93082 12.9686L8.50359 12.5345C8.44804 12.478 8.44739 12.3858 8.50213 12.3286Z" fill="#0AAD69"/>
<path fill-rule="evenodd" clip-rule="evenodd" d="M27.9386 6.77892C28.012 6.87345 27.9915 7.00706 27.8926 7.07734L26.8589 7.81233L26.8582 7.8128C26.303 8.20148 26.2046 8.95812 26.6409 9.46879L26.6411 9.46902L27.2392 10.171C27.317 10.2624 27.3027 10.3967 27.2072 10.4711C27.1117 10.5455 26.9713 10.5318 26.8935 10.4405L26.2956 9.73871C26.2955 9.73866 26.2955 9.73861 26.2954 9.73856C25.699 9.0404 25.8315 8.00352 26.5941 7.46907L27.6265 6.735C27.7254 6.66472 27.8651 6.68439 27.9386 6.77892Z" fill="#0AAD69"/>
</svg>
