<svg width="82" height="77" viewBox="0 0 82 77" fill="none" xmlns="http://www.w3.org/2000/svg">
<path d="M82 0H0V77H82V0Z" fill="#01A299"/>
<path d="M31.4916 40.2857C31.1556 40.2857 30.8072 40.1998 30.4961 40.0034C29.5878 39.451 29.3016 38.2848 29.8491 37.3887L43.7106 14.9122C44.2706 14.0161 45.4527 13.7338 46.361 14.2739C47.2693 14.8263 47.5555 15.9925 47.008 16.8886L33.1465 39.3773C32.7856 39.9543 32.151 40.2857 31.4916 40.2857Z" fill="#FFE14C"/>
<path d="M71.839 60.8572H50.7142V62H71.839C72.1583 62 72.4285 61.75 72.4285 61.4286C72.4285 61.1191 72.1706 60.8572 71.839 60.8572Z" fill="#DFF8FE"/>
<path d="M43.0695 40.2858H14.4088C11.4247 40.2858 9 42.9204 9 46.163V50.0001H48.4286V46.1224C48.4286 42.9069 46.0288 40.2858 43.0695 40.2858Z" fill="#FFE14C"/>
<path d="M44.3242 62H59.2857L48.4285 50H38.1428L44.3242 62Z" fill="#EB0027"/>
<path d="M43.2857 40.2858C46.1243 40.2858 48.4285 42.9069 48.4285 46.136V50.0001H38.1428V46.136C38.1428 42.9069 40.447 40.2858 43.2857 40.2858Z" fill="#FFAE00"/>
<path d="M38.1429 50H9V62L35.2975 62V59.9369C35.2975 59.6439 35.6879 59.5463 35.8391 59.7904L37.1741 62H44.4286L38.1429 50Z" fill="#FF424B"/>
<path d="M66.7143 58C65.1402 58 63.8572 59.2831 63.8572 60.8571H69.5715C69.5715 59.2831 68.2884 58 66.7143 58Z" fill="#70DFFF"/>
<path d="M59.8571 58C58.906 58 58.1428 57.2368 58.1428 56.2857C58.1428 55.3345 58.906 54.5714 59.8571 54.5714C60.8083 54.5714 61.5714 55.3345 61.5714 56.2857C61.5714 57.2368 60.7972 58 59.8571 58Z" fill="#70DFFF"/>
<path d="M59.5715 46.5714C57.2024 46.5714 55.2858 44.6548 55.2858 42.2857C55.2858 39.9167 57.2024 38 59.5715 38C61.9405 38 63.8572 39.9167 63.8572 42.2857C63.8572 44.6548 61.9405 46.5714 59.5715 46.5714Z" fill="#70DFFF"/>
<path d="M32.4002 34.5714C31.4693 34.5714 30.6013 35.0034 30.0604 35.7439L26.7142 40.2857H34.2871L35.0544 38.4961C35.8595 36.6325 34.4632 34.5714 32.4002 34.5714Z" fill="#FFAE00"/>
</svg>
