<svg width="37" height="35" viewBox="0 0 37 35" fill="none" xmlns="http://www.w3.org/2000/svg">
<path d="M36.6486 0H0V34.4139H36.6486V0Z" fill="#0066AF"/>
<path d="M25.6839 18.2435C26.5407 17.3491 27.0661 16.1312 27.0661 14.7865C27.0661 12.0463 24.8771 9.83252 22.1815 9.83252C20.5116 9.83252 19.0418 10.6825 18.1599 11.9765C17.2781 10.6825 15.8021 9.83252 14.1322 9.83252C11.4366 9.83252 9.24756 12.0526 9.24756 14.7865C9.24756 16.0932 9.7479 17.2857 10.5672 18.1737L10.611 18.2181C10.6485 18.2562 10.686 18.2943 10.7236 18.3323L16.6276 24.39C17.4532 25.24 18.8104 25.24 19.6422 24.3963L25.6276 18.3006C25.6338 18.2943 25.6463 18.2816 25.6526 18.2752L25.6839 18.2435Z" fill="#FF8F96"/>
<path d="M18.4288 11.6147C18.335 11.7289 18.2412 11.8494 18.1599 11.9763C18.1536 11.97 18.1474 11.9636 18.1411 11.9509C18.654 12.7248 18.9229 13.6319 18.9229 14.5706C18.9229 14.6912 19.023 14.7927 19.1418 14.7927C19.2606 14.7927 19.3607 14.6912 19.3607 14.5706C19.3607 13.5304 19.0542 12.5282 18.4851 11.6718C18.4663 11.6465 18.4476 11.6274 18.4288 11.6147Z" fill="#FF656C"/>
<path d="M18.2969 11.7867L18.6158 12.2688L18.9098 13.0426L19.1287 14.0005L19.6666 10.5435C19.135 10.867 18.6659 11.2919 18.2969 11.7867Z" fill="#FF656C"/>
</svg>
