<svg width="37" height="35" viewBox="0 0 37 35" fill="none" xmlns="http://www.w3.org/2000/svg">
<path d="M36.7267 0H0V34.4021H36.7267V0Z" fill="#4740D4"/>
<path d="M17.4513 21.1138L7.09838 19.5576C6.85293 21.9029 7.65503 24.1692 9.16721 25.8306C9.25487 25.9271 9.39951 25.949 9.51347 25.8789C9.65811 25.7912 9.6888 25.5939 9.57922 25.4668C9.50032 25.3791 9.41704 25.2695 9.34253 25.1687C9.26802 25.0591 9.28117 24.9057 9.38198 24.8136C9.98246 24.2394 12.3976 22.2053 17.4513 21.1138Z" fill="#FFFAE0"/>
<path d="M6.4408 23.4595C7.24729 21.9997 10.8809 18.129 26.9274 16.7262L24.7534 9.90083C24.3765 8.71286 23.2193 7.94572 21.9789 8.05531C18.0648 8.39724 9.92098 9.55452 7.17278 13.3552C4.64811 16.8489 5.14778 20.5926 5.70444 22.5828C5.84908 22.9641 6.11207 23.2666 6.4408 23.4595Z" fill="#FFA900"/>
<path d="M26.8354 16.4451C26.8354 16.4451 23.2105 15.3141 17.8105 18.5887C17.8105 18.5887 26.4277 17.975 26.8354 16.4451Z" fill="#FFD100"/>
<path d="M31.0782 17.1731C27.2562 16.1912 19.2219 15.1522 8.74631 19.4263C8.74631 19.4263 6.53723 21.7014 6.2085 23.2971C6.62051 23.6434 7.18155 23.7924 7.7382 23.6565L30.9862 17.9885C31.556 17.8657 31.5428 17.2915 31.0782 17.1731Z" fill="#F7D000"/>
<path d="M6.41422 23.4419C7.09799 22.0348 10.0916 18.4621 23.07 17.0242C22.3643 15.0253 19.1033 7.51608 10.8981 10.5671C9.22818 11.3123 7.77737 12.3074 6.92266 13.6269C4.67413 17.1075 5.24393 20.8424 5.77867 22.7493C5.92332 23.043 6.14685 23.2797 6.41422 23.4419Z" fill="#F7D000"/>
<path d="M17.9464 18.5493C17.793 18.2994 17.8807 17.9751 18.1349 17.8304C23.3201 14.867 26.4496 15.941 26.5943 15.9849L26.7565 16.432C26.7258 16.4189 23.1667 15.3843 17.9464 18.5493Z" fill="#FFA900"/>
<path d="M8.74616 20.6141C8.21581 19.7725 7.95282 18.7554 8.0624 17.6946C8.321 15.1915 10.5827 13.3548 13.0811 13.6046C14.9044 13.7888 16.364 15.0118 16.9426 16.625C16.9995 16.7872 17.1924 16.8617 17.3414 16.774C17.3458 16.7696 17.3502 16.7696 17.3546 16.7653C17.4685 16.6995 17.5211 16.5592 17.4773 16.4365C16.8374 14.6436 15.2244 13.2759 13.2038 13.0435C10.3022 12.7148 7.68107 14.8978 7.47944 17.813C7.40055 18.9439 7.69422 20.0223 8.26402 20.9166C8.321 21.0086 8.4262 21.0569 8.53577 21.0481H8.54016C8.75054 21.0218 8.85574 20.7895 8.74616 20.6141Z" fill="#FFA900"/>
<path d="M8.22038 20.0008L13.0812 13.377C13.0812 13.377 11.0562 13.0395 9.26794 14.7535C7.47963 16.4675 7.79521 18.7383 8.22038 20.0008Z" fill="#FFA900"/>
</svg>
