<svg width="37" height="35" viewBox="0 0 37 35" fill="none" xmlns="http://www.w3.org/2000/svg">
<path d="M36.6486 0.318359H0V34.7323H36.6486V0.318359Z" fill="#CC0007"/>
<path d="M18.1007 18.1956C16.7467 18.1956 15.6426 17.0914 15.6426 15.7374C15.6426 14.3835 16.7467 13.2793 18.1007 13.2793C19.4547 13.2793 20.5589 14.3835 20.5589 15.7374C20.5589 17.0914 19.4547 18.1956 18.1007 18.1956ZM18.1007 13.9588C17.1215 13.9588 16.3221 14.7582 16.3221 15.7374C16.3221 16.7167 17.1215 17.5161 18.1007 17.5161C19.08 17.5161 19.8794 16.7167 19.8794 15.7374C19.8794 14.7582 19.08 13.9588 18.1007 13.9588Z" fill="#FFA700"/>
<path d="M18.1011 17.3018C17.9095 17.3018 17.7482 17.3943 17.718 17.5212L17.4307 18.6426H18.7715L18.4842 17.5212C18.4539 17.3943 18.2876 17.3018 18.1011 17.3018Z" fill="#FFC300"/>
<path d="M18.1008 30.2629C21.1863 30.2629 23.6875 27.6616 23.6875 24.4527C23.6875 21.2439 21.1863 18.6426 18.1008 18.6426C15.0154 18.6426 12.5142 21.2439 12.5142 24.4527C12.5142 27.6616 15.0154 30.2629 18.1008 30.2629Z" fill="#FFC300"/>
<path d="M21.8644 25.1107C21.7849 24.9171 21.591 24.8421 21.4369 24.9483L18.1957 27.11C18.136 27.1475 18.0664 27.1475 18.0068 27.11L14.7656 24.9483C14.6115 24.8483 14.4226 24.9171 14.3381 25.1107C14.2585 25.3044 14.3132 25.5418 14.4673 25.6481L17.8775 27.9222L17.977 27.991C18.0515 28.0409 18.141 28.0409 18.2206 27.991L18.32 27.9222L21.7302 25.6481C21.8843 25.5481 21.944 25.3044 21.8644 25.1107Z" fill="#FFAE00"/>
<path d="M21.8644 27.315C21.7849 27.149 21.591 27.0847 21.4369 27.1758L18.1957 29.0287C18.136 29.0608 18.0664 29.0608 18.0068 29.0287L14.7656 27.1758C14.6115 27.0901 14.4226 27.149 14.3381 27.315C14.2585 27.481 14.3132 27.6845 14.4673 27.7755L17.8775 29.7248L17.977 29.7837C18.0515 29.8266 18.141 29.8266 18.2206 29.7837L18.32 29.7248L21.7302 27.7755C21.8843 27.6899 21.944 27.481 21.8644 27.315Z" fill="#FFAE00"/>
<path d="M18.1034 16.408L24.1346 11.8L21.8329 4.34082H14.3739L12.0674 11.8L18.1034 16.408Z" fill="#6559FF"/>
<path d="M14.3018 4.34082H21.8157L24.1343 11.8L18.0587 16.408L14.3018 4.34082Z" fill="#6559FF"/>
<path d="M14.3018 4.34082L18.3242 16.408L15.4863 14.4002L14.3018 4.34082Z" fill="#2525B7"/>
<path d="M22.2702 12.8326L19.2183 4.34082H19.8587L22.7937 12.4991L22.2702 12.8326Z" fill="#8083FF"/>
<path d="M19.6275 15.5142L16.0898 4.34082H16.6829L20.1122 15.1685L19.6275 15.5142Z" fill="#8083FF"/>
<path d="M17.1977 21.6043L18.0808 19.9834L18.994 21.591L21.0059 21.8315L19.566 23.1006L19.9272 24.873L18.1209 24.0491L16.3347 24.8997L16.6609 23.1229L15.1958 21.8804L17.1977 21.6043Z" fill="#FFAE00"/>
</svg>
