<svg width="37" height="35" viewBox="0 0 37 35" fill="none" xmlns="http://www.w3.org/2000/svg">
<path d="M36.7267 0H0V34.4021H36.7267V0Z" fill="#A0A8FF"/>
<path d="M27.6932 17.4724C23.4627 19.7595 18.6656 20.8296 13.8499 20.5587L12.7354 15.6629L26.5787 12.5767L27.6932 17.4724Z" fill="#172B4D"/>
<path d="M21.6005 14.1149L12.8282 16.0714L12.7354 15.6581L21.5076 13.7016C21.6237 13.674 21.7398 13.7475 21.763 13.8623C21.7909 13.9772 21.7166 14.092 21.6005 14.1149Z" fill="#081833"/>
<path d="M19.9374 14.2715L13.4778 18.9192L12.7812 15.8651L19.9374 14.2715Z" fill="#081833"/>
<path d="M30.1635 11.773L8.38845 16.6274C8.10053 16.6917 7.81261 16.5126 7.7476 16.2278C7.68258 15.9431 7.86369 15.6583 8.15161 15.594L29.9313 10.7396C30.2192 10.6753 30.5072 10.8545 30.5722 11.1392C30.6372 11.4239 30.4561 11.7087 30.1635 11.773Z" fill="#172B4D"/>
<path d="M7.74781 16.2232C7.68279 15.9385 7.8639 15.6537 8.15182 15.5895L20.1516 12.9165C20.0215 12.3471 19.4457 11.9842 18.8699 12.1128L7.37165 14.6755C6.79581 14.8041 6.43359 15.3644 6.55898 15.9339" fill="#FA002A"/>
<path d="M7.74769 21.5551L6.55886 21.5505L6.53564 15.6812L7.74769 16.2231V21.5551Z" fill="#FA002A"/>
<path d="M7.14381 22.7905C7.63368 22.7905 8.03079 22.3978 8.03079 21.9133C8.03079 21.4289 7.63368 21.0361 7.14381 21.0361C6.65395 21.0361 6.25684 21.4289 6.25684 21.9133C6.25684 22.3978 6.65395 22.7905 7.14381 22.7905Z" fill="#FA002A"/>
<path d="M7.14351 23.6865C7.48462 23.6865 7.76115 23.413 7.76115 23.0757C7.76115 22.7383 7.48462 22.4648 7.14351 22.4648C6.8024 22.4648 6.52588 22.7383 6.52588 23.0757C6.52588 23.413 6.8024 23.6865 7.14351 23.6865Z" fill="#FA002A"/>
</svg>
