<svg width="37" height="35" viewBox="0 0 37 35" fill="none" xmlns="http://www.w3.org/2000/svg">
<path d="M36.6486 0H0V34.4139H36.6486V0Z" fill="#017374"/>
<path d="M23.2188 9.63106L27.2708 7.83713L24.4553 5.59473L23.2188 9.63106Z" fill="#FFE14C"/>
<path d="M25.1602 16.5972L29.2377 19.283L29.6465 15.3384L25.1602 16.5972Z" fill="#FFE14C"/>
<path d="M12.4945 10.9812L10.558 4.9165L6.89941 8.59099L12.4945 10.9812Z" fill="#FFE14C"/>
<path d="M10.2707 18.498L6.7041 16.9028L6.88805 20.0677L10.2707 18.498Z" fill="#FFE14C"/>
<path d="M22.5081 13.1119C22.3088 11.792 21.1694 10.8135 19.8306 10.8135H19.3401H16.3816H15.8911C14.5523 10.8135 13.4128 11.792 13.2136 13.1119L11.604 23.7379H16.3765H19.335H24.1075L22.5081 13.1119Z" fill="#DB001A"/>
<path d="M25.3951 27.2699L25.0324 25.1192C24.9608 24.7013 24.598 24.3955 24.1739 24.3955H18.9671H16.9028H11.6909C11.2668 24.3955 10.904 24.7013 10.8325 25.1192L10.4697 27.2699C10.3624 27.912 10.7201 28.5083 11.2821 28.7427C12.5493 29.3849 15.0122 29.7008 15.0122 29.7008C16.9488 30.027 18.9211 30.027 20.8577 29.7008C20.8577 29.7008 23.3206 29.39 24.5878 28.7427C24.6951 28.6969 24.7973 28.6357 24.8893 28.5694C25.2674 28.2789 25.482 27.7897 25.3951 27.2699Z" fill="#F0F0FF"/>
<path d="M19.8464 10.8135H19.3559H17.9507V23.7379H19.3559H24.1283L22.5239 13.1119C22.3246 11.792 21.1902 10.8135 19.8464 10.8135Z" fill="#FF424B"/>
<path d="M19.846 10.8135H19.3759H19.3554H17.9707V17.2757L22.3395 12.4596C21.9256 11.4811 20.9548 10.8135 19.846 10.8135Z" fill="#FF656C"/>
<path d="M17.9556 17.2759L24.1332 23.7381L23.1572 17.2759H17.9556Z" fill="#FF656C"/>
</svg>
