<svg width="37" height="35" viewBox="0 0 37 35" fill="none" xmlns="http://www.w3.org/2000/svg">
<path d="M36.6486 0H0V34.4139H36.6486V0Z" fill="#FF424B"/>
<path d="M14.1848 26.1635H31.0859C31.3858 26.1635 31.6257 25.9233 31.6257 25.623V24.269C31.6257 23.9687 31.3858 23.7285 31.0859 23.7285H14.1848C13.8849 23.7285 13.645 23.9687 13.645 24.269V25.623C13.645 25.9233 13.8849 26.1635 14.1848 26.1635Z" fill="#4CD5FF"/>
<path d="M18.2031 23.7275H18.0396V26.1625H18.2031V23.7275Z" fill="#ADEBFD"/>
<path d="M15.9458 23.7275H15.7822V26.1625H15.9458V23.7275Z" fill="#ADEBFD"/>
<path d="M29.4888 23.7275H29.3252V26.1625H29.4888V23.7275Z" fill="#ADEBFD"/>
<path d="M24.9741 23.7275H24.8105V26.1625H24.9741V23.7275Z" fill="#ADEBFD"/>
<path d="M20.4604 23.7275H20.2969V26.1625H20.4604V23.7275Z" fill="#ADEBFD"/>
<path d="M27.2314 23.7275H27.0679V26.1625H27.2314V23.7275Z" fill="#ADEBFD"/>
<path d="M22.7173 23.7275H22.5537V26.1625H22.7173V23.7275Z" fill="#ADEBFD"/>
<path d="M11.611 28.6044H28.5122C28.8121 28.6044 29.0519 28.3642 29.0519 28.0639V26.7099C29.0519 26.4097 28.8121 26.1694 28.5122 26.1694H11.611C11.3112 26.1694 11.0713 26.4097 11.0713 26.7099V28.0639C11.0713 28.3587 11.3112 28.6044 11.611 28.6044Z" fill="#4CD5FF"/>
<path d="M15.6289 26.1631H15.4653V28.598H15.6289V26.1631Z" fill="#ADEBFD"/>
<path d="M13.3721 26.1631H13.2085V28.598H13.3721V26.1631Z" fill="#ADEBFD"/>
<path d="M26.915 26.1631H26.7515V28.598H26.915V26.1631Z" fill="#ADEBFD"/>
<path d="M22.4004 26.1631H22.2368V28.598H22.4004V26.1631Z" fill="#ADEBFD"/>
<path d="M17.8862 26.1631H17.7227V28.598H17.8862V26.1631Z" fill="#ADEBFD"/>
<path d="M24.6577 26.1631H24.4941V28.598H24.6577V26.1631Z" fill="#ADEBFD"/>
<path d="M20.1435 26.1631H19.98V28.598H20.1435V26.1631Z" fill="#ADEBFD"/>
<path d="M14.2717 23.8167L29.5591 23.7294C29.8589 23.7294 30.0988 23.4892 30.0988 23.1889V21.8349C30.0988 21.5347 29.8589 21.2944 29.5591 21.2944H12.6579C12.3581 21.2944 12.1182 21.5347 12.1182 21.8349V23.1889C12.1127 23.4892 13.9719 23.8167 14.2717 23.8167Z" fill="#4CD5FF"/>
<path d="M16.6709 21.2935H16.5073V23.7284H16.6709V21.2935Z" fill="#ADEBFD"/>
<path d="M14.4136 21.2935H14.25V23.7284H14.4136V21.2935Z" fill="#ADEBFD"/>
<path d="M27.9614 21.2935H27.7979V23.7284H27.9614V21.2935Z" fill="#ADEBFD"/>
<path d="M23.4443 21.2926L23.2808 21.2944L23.308 23.7292L23.4716 23.7273L23.4443 21.2926Z" fill="#ADEBFD"/>
<path d="M18.9336 21.2935H18.77V23.7939H18.9336V21.2935Z" fill="#ADEBFD"/>
<path d="M25.7046 21.2935H25.541V23.7284H25.7046V21.2935Z" fill="#ADEBFD"/>
<path d="M21.187 21.2926L21.0234 21.2944L21.0507 23.7292L21.2142 23.7273L21.187 21.2926Z" fill="#ADEBFD"/>
<path d="M13.645 25.6229L23.7039 21.2935H13.645V25.6229Z" fill="#00BAFF"/>
<path d="M14.3536 23.8162C19.3188 23.8162 23.3439 19.7855 23.3439 14.8134C23.3439 9.84124 19.3188 5.81055 14.3536 5.81055C9.38839 5.81055 5.36328 9.84124 5.36328 14.8134C5.36328 19.7855 9.38839 23.8162 14.3536 23.8162Z" fill="#4CD5FF"/>
<path d="M14.3536 22.6959C18.7016 22.6959 22.2263 19.1663 22.2263 14.8123C22.2263 10.4583 18.7016 6.92871 14.3536 6.92871C10.0057 6.92871 6.48096 10.4583 6.48096 14.8123C6.48096 19.1663 10.0057 22.6959 14.3536 22.6959Z" fill="#ADEBFD"/>
<path d="M17.7446 16.3035C17.7446 17.0023 17.5483 17.581 17.1503 18.0341C16.7523 18.4927 16.1908 18.7985 15.4602 18.9513V19.8412H13.2303V18.9677C12.4889 18.8149 11.9164 18.5091 11.513 18.0396C11.1095 17.5701 10.9023 16.9804 10.9023 16.2707H13.7592C13.7592 16.4399 13.8083 16.5764 13.9118 16.6802C14.0154 16.7839 14.1463 16.833 14.3044 16.833C14.457 16.833 14.5824 16.7948 14.6806 16.7129C14.7787 16.631 14.8278 16.5218 14.8278 16.3854C14.8278 16.2543 14.7678 16.1397 14.6424 16.0414C14.517 15.9431 14.3971 15.8776 14.2717 15.8339C14.1463 15.7957 13.9391 15.7357 13.6501 15.6592C13.6283 15.6538 13.6174 15.6538 13.6065 15.6483C13.4321 15.6046 13.3012 15.5719 13.2194 15.55C13.1322 15.5282 13.0068 15.49 12.8323 15.4354C12.6579 15.3808 12.527 15.3317 12.4344 15.2825C12.3417 15.2388 12.2163 15.1733 12.0745 15.0969C11.9273 15.015 11.8128 14.9331 11.7256 14.8512C11.6384 14.7639 11.5457 14.6601 11.4421 14.5346C11.3385 14.409 11.2622 14.278 11.2077 14.136C11.1531 13.9941 11.1041 13.8303 11.0659 13.6501C11.0277 13.4645 11.0114 13.2679 11.0114 13.0605C11.0114 12.4163 11.1968 11.8758 11.5675 11.4499C11.9382 11.0241 12.4725 10.7347 13.1595 10.5873V9.71924H15.4002V10.5982C16.0545 10.7511 16.5615 11.0404 16.9213 11.4718C17.2757 11.8976 17.4556 12.4272 17.4556 13.0659L14.7078 13.0769C14.7078 12.9404 14.6697 12.8366 14.5933 12.7602C14.517 12.6838 14.408 12.6456 14.2662 12.6456C14.1299 12.6456 14.0154 12.6783 13.9391 12.7438C13.8573 12.8093 13.8192 12.8967 13.8192 13.0059C13.8192 13.0714 13.8301 13.126 13.8573 13.1806C13.8846 13.2352 13.9282 13.2843 13.9882 13.328C14.0481 13.3717 14.1081 13.4099 14.1681 13.4427C14.2281 13.4754 14.3153 13.5082 14.4298 13.5464C14.5443 13.5846 14.6424 13.6119 14.7187 13.6337C14.7951 13.6556 14.9096 13.6883 15.0622 13.7266C15.3784 13.8084 15.6238 13.8794 15.8037 13.934C15.9781 13.9886 16.2126 14.0869 16.4961 14.2234C16.785 14.3599 17.0031 14.5127 17.1558 14.6765C17.3084 14.8403 17.4502 15.0641 17.5701 15.3426C17.6846 15.6265 17.7446 15.9486 17.7446 16.3035Z" fill="#4CD5FF"/>
<path d="M14.4355 22.6963H14.272V23.8155H14.4355V22.6963Z" fill="#ADEBFD"/>
<path d="M14.4355 5.81006H14.272V6.92927H14.4355V5.81006Z" fill="#ADEBFD"/>
<path d="M21.694 17.6638L21.6333 17.8159L22.671 18.2315L22.7318 18.0794L21.694 17.6638Z" fill="#ADEBFD"/>
<path d="M6.03534 11.3953L5.97461 11.5474L7.01235 11.9629L7.07308 11.8108L6.03534 11.3953Z" fill="#ADEBFD"/>
<path d="M7.02954 17.7045L5.99414 18.126L6.05574 18.2777L7.09114 17.8562L7.02954 17.7045Z" fill="#ADEBFD"/>
<path d="M22.6516 11.3495L21.6162 11.771L21.6778 11.9227L22.7132 11.5012L22.6516 11.3495Z" fill="#ADEBFD"/>
<path d="M17.5041 22.039L17.3535 22.103L17.7903 23.1333L17.9409 23.0693L17.5041 22.039Z" fill="#ADEBFD"/>
<path d="M10.9172 6.4941L10.7666 6.55811L11.2034 7.58834L11.3539 7.52433L10.9172 6.4941Z" fill="#ADEBFD"/>
<path d="M11.1421 22.0248L10.7012 23.0532L10.8515 23.1178L11.2924 22.0894L11.1421 22.0248Z" fill="#ADEBFD"/>
<path d="M17.7905 6.51013L17.3496 7.53857L17.4999 7.60319L17.9408 6.57475L17.7905 6.51013Z" fill="#ADEBFD"/>
<path d="M19.9794 20.328L19.8638 20.4438L20.6541 21.2352L20.7697 21.1194L19.9794 20.328Z" fill="#ADEBFD"/>
<path d="M8.05608 8.38858L7.94043 8.50439L8.73073 9.29579L8.84638 9.17997L8.05608 8.38858Z" fill="#ADEBFD"/>
<path d="M8.73073 20.3317L7.94043 21.123L8.05608 21.2389L8.84638 20.4475L8.73073 20.3317Z" fill="#ADEBFD"/>
<path d="M20.6541 8.3922L19.8638 9.18359L19.9794 9.29941L20.7697 8.50801L20.6541 8.3922Z" fill="#ADEBFD"/>
<path d="M6.48094 14.7305H5.36328V14.8943H6.48094V14.7305Z" fill="#ADEBFD"/>
<path d="M23.3442 14.7305H22.2266V14.8943H23.3442V14.7305Z" fill="#ADEBFD"/>
<path d="M31.6255 24.209H16.4199V23.7285H31.1457C31.4129 23.7285 31.6255 23.9469 31.6255 24.209Z" fill="#00BAFF"/>
<path d="M29.0469 26.644H11.0771C11.0771 26.382 11.2898 26.1636 11.5569 26.1636H28.5726C28.8343 26.1636 29.0469 26.382 29.0469 26.644Z" fill="#00BAFF"/>
</svg>
