<svg width="37" height="35" viewBox="0 0 37 35" fill="none" xmlns="http://www.w3.org/2000/svg">
<path d="M36.6486 0H0V34.4139H36.6486V0Z" fill="#FAD300"/>
<path d="M20.8629 5.02956C17.9319 4.4719 15.0896 6.02537 13.8758 8.62942C13.8758 8.62942 13.8758 8.6344 13.8708 8.6344C13.8511 8.67921 13.8313 8.72402 13.8116 8.76883C13.7771 8.85846 13.7475 8.95306 13.7327 9.04766C13.5748 9.87916 14.1175 10.6808 14.9416 10.8351C15.6127 10.9646 16.264 10.626 16.565 10.0485C17.2411 8.69415 18.7559 7.90248 20.3054 8.21616C22.1508 8.58959 23.3598 10.4169 22.9946 12.2791C22.6295 14.1412 20.8432 15.3611 18.9928 15.0076L15.2821 14.3006C13.856 14.0267 12.4793 14.9727 12.2128 16.4167L10.7374 24.2886C10.4463 25.8371 11.4579 27.3308 12.9925 27.6245L20.2165 29.0037C21.6426 29.2776 23.0144 28.3316 23.2858 26.8926L25.9652 12.5828C26.6215 9.07256 24.3368 5.69177 20.8629 5.02956Z" fill="#6559FF"/>
<path d="M20.0332 26.6196L13.4475 25.3339C13.1432 25.2762 12.949 24.9823 13.0067 24.678C13.0645 24.3736 13.3583 24.1795 13.6627 24.2372L20.2483 25.5228C20.5527 25.5806 20.7469 25.8744 20.6891 26.1788C20.6314 26.4831 20.3375 26.6826 20.0332 26.6196Z" fill="white"/>
<path d="M18.5525 17.8045C16.4587 17.3952 14.4279 18.7595 14.0186 20.8533L13.7982 21.9815C13.6723 22.6217 14.0921 23.2462 14.7323 23.3721L19.9851 24.4006C20.6253 24.5266 21.2497 24.1068 21.3757 23.4666L21.5961 22.3383C22.0106 20.2446 20.6462 18.2138 18.5525 17.8045Z" fill="white"/>
<path d="M18.4426 18.7646L18.2904 18.7332C16.7843 18.4393 15.3203 19.4206 15.0264 20.9266L14.8532 21.8135C14.785 22.1703 15.0159 22.5166 15.3728 22.5849L19.6915 23.4297C20.0483 23.4979 20.3947 23.267 20.4629 22.9102L20.636 22.0286C20.9352 20.5226 19.9486 19.0637 18.4426 18.7646Z" fill="#0A9E60"/>
<path d="M19.0249 18.959L16.5376 22.8159L19.6809 23.4299C20.0482 23.5034 20.3998 23.2777 20.468 22.9314L20.6569 21.9553C20.9036 20.7117 20.1951 19.4837 19.0249 18.959Z" fill="#087E4D"/>
<path d="M18.7126 18.1798C18.3874 18.1174 18.1735 17.8011 18.2359 17.4714C18.2983 17.1462 18.6146 16.9323 18.9443 16.9947C19.2695 17.0571 19.4834 17.3734 19.421 17.7031C19.3542 18.0283 19.0379 18.2422 18.7126 18.1798Z" fill="white"/>
</svg>
