<svg width="37" height="35" viewBox="0 0 37 35" fill="none" xmlns="http://www.w3.org/2000/svg">
<path d="M36.6486 0H0V34.4139H36.6486V0Z" fill="#1E0078"/>
<path d="M12.7264 11.0723C8.65218 13.6871 7.46302 19.1126 10.0778 23.1868L23.4829 14.5857L23.9018 12.4979C21.0708 9.43042 16.3614 8.73449 12.7264 11.0723ZM12.4832 18.0383C12.2805 16.3762 12.6251 14.9843 14.4764 13.7952C16.3277 12.606 17.9763 12.9033 19.1857 13.7344L12.4832 18.0383Z" fill="#6559FF"/>
<path d="M25.1149 9.85428L22.1597 9.00732L17.1543 26.4726L20.1095 27.3196L25.1149 9.85428Z" fill="#0AAD69"/>
<path d="M25.8414 8.71379L25.9292 8.39623C25.9698 8.24759 25.8481 8.08543 25.6522 8.02462L22.659 7.16654C22.4631 7.11248 22.2739 7.18681 22.2266 7.33545L22.1388 7.65301C22.0982 7.80165 22.2199 7.96381 22.4158 8.02462C22.2199 7.97057 22.0307 8.04489 21.9834 8.19354L21.8955 8.5111C21.855 8.65974 21.9766 8.8219 22.1726 8.88271C21.9766 8.82866 21.7874 8.90298 21.7401 9.05162L21.6523 9.36918C21.6118 9.51783 21.7334 9.67998 21.9293 9.74079L24.9225 10.5989C25.1184 10.6529 25.3076 10.5786 25.3549 10.43L25.4428 10.1124C25.4833 9.96376 25.3617 9.8016 25.1657 9.74079C25.3617 9.79485 25.5509 9.72052 25.5982 9.57188L25.686 9.25432C25.7265 9.10567 25.6049 8.94352 25.409 8.88271C25.6117 8.93676 25.8009 8.86244 25.8414 8.71379Z" fill="#00D1FF"/>
<path d="M24.9157 4.97743C24.0982 4.74095 23.2468 5.21391 23.0171 6.03146L22.686 7.18008L25.6387 8.02465L25.9697 6.87603C26.1995 6.05848 25.7265 5.20716 24.9157 4.97743Z" fill="#FF8F96"/>
<path d="M23.9238 10.2947L22.9365 10.0117L18.1396 26.7496L19.1269 27.0325L23.9238 10.2947Z" fill="#098E56"/>
<path d="M17.7875 26.1186C17.5172 26.0375 17.2334 26.1997 17.1523 26.4699L18.1388 26.7537C18.2199 26.4835 18.0577 26.1997 17.7875 26.1186Z" fill="#FFD700"/>
<path d="M18.7738 26.4028C18.5035 26.3217 18.2198 26.4839 18.1387 26.7541L19.1251 27.0379C19.1995 26.7676 19.0441 26.4839 18.7738 26.4028Z" fill="#FFD700"/>
<path d="M19.7538 26.6865C19.4835 26.6054 19.1997 26.7675 19.1187 27.0378L20.1051 27.3216C20.1862 27.0446 20.0308 26.7608 19.7538 26.6865Z" fill="#FFD700"/>
<path d="M17.1523 26.4697L17.7469 29.9899L20.105 27.3211L17.1523 26.4697Z" fill="#FFD700"/>
<path opacity="0.35" d="M17.5513 28.8217C17.5513 28.8217 18.1931 28.4028 18.5377 29.1054L17.7472 29.9905L17.5513 28.8217Z" fill="#1E0078"/>
<path opacity="0.35" d="M22.1724 8.86907L25.1656 9.72715C25.1656 9.72715 25.4156 9.80147 25.5643 9.6258L21.8887 8.57178C21.8887 8.57853 21.9089 8.79474 22.1724 8.86907Z" fill="#1E0078"/>
<path opacity="0.35" d="M22.4224 8.01807L25.4156 8.87616C25.4156 8.87616 25.6656 8.95048 25.8143 8.77481L22.1387 7.72754C22.1387 7.72754 22.1522 7.94375 22.4224 8.01807Z" fill="#1E0078"/>
<path opacity="0.35" d="M21.9293 9.72698L24.9224 10.5851C24.9224 10.5851 25.1724 10.6594 25.3211 10.4837L21.6455 9.42969C21.6455 9.42969 21.6658 9.6459 21.9293 9.72698Z" fill="#1E0078"/>
<path d="M27.6982 17.3522L24.6245 18.5645L25.1277 19.8404L28.2014 18.6282L27.6982 17.3522Z" fill="#00D1FF"/>
<path d="M28.0179 20.7817L26.8057 17.708L25.5297 18.2112L26.7419 21.2849L28.0179 20.7817Z" fill="#00D1FF"/>
<path opacity="0.35" d="M26.7994 17.7062L25.5234 18.2095L26.0267 19.4855L27.3027 18.9822L26.7994 17.7062Z" fill="#1E0078"/>
<path d="M26.0309 19.4905C25.9499 19.5243 25.9093 19.6189 25.9431 19.7C25.9769 19.781 26.0715 19.8216 26.1526 19.7878C26.0715 19.8216 26.0309 19.9162 26.0647 19.9972C26.0985 20.0783 26.1931 20.1189 26.2742 20.0851C26.1931 20.1189 26.1526 20.2135 26.1863 20.2945C26.2201 20.3756 26.3147 20.4161 26.3958 20.3824C26.3147 20.4161 26.2742 20.5107 26.308 20.5918C26.3417 20.6729 26.4363 20.7134 26.5174 20.6797C26.4363 20.7134 26.3958 20.808 26.4296 20.8891C26.4634 20.9702 26.5579 21.0107 26.639 20.9769C26.5579 21.0107 26.5174 21.1053 26.5512 21.1864C26.585 21.2675 26.6796 21.308 26.7606 21.2742L26.9093 21.2134L26.7944 20.9161L26.6796 20.6188L26.5647 20.3216L26.4498 20.0243L26.335 19.727L26.2201 19.4297L26.0309 19.4905Z" fill="#00D1FF"/>
<path d="M27.3078 18.9841C27.3889 18.9503 27.4835 18.9909 27.5173 19.072C27.5511 19.153 27.5105 19.2476 27.4294 19.2814C27.5105 19.2476 27.6051 19.2882 27.6389 19.3692C27.6727 19.4503 27.6321 19.5449 27.5511 19.5787C27.6321 19.5449 27.7267 19.5855 27.7605 19.6665C27.7943 19.7476 27.7537 19.8422 27.6727 19.876C27.7537 19.8422 27.8483 19.8827 27.8821 19.9638C27.9159 20.0449 27.8754 20.1395 27.7943 20.1733C27.8754 20.1395 27.97 20.18 28.0037 20.2611C28.0375 20.3422 27.997 20.4368 27.9159 20.4706C27.997 20.4368 28.0916 20.4773 28.1254 20.5584C28.1591 20.6395 28.1186 20.7341 28.0375 20.7679L27.8889 20.8287L27.774 20.5314L27.6592 20.2341L27.5443 19.9368L27.4294 19.6395L27.3146 19.3422L27.1997 19.0449L27.3078 18.9841Z" fill="#00D1FF"/>
<path d="M25.6246 21.3893L23.7192 21.1934L22.5977 22.7474L23.3814 24.4973L25.2868 24.6933L26.4084 23.1393L25.6246 21.3893ZM24.8679 23.8082L23.9692 23.7136L23.5976 22.8893L24.1246 22.1528L25.0233 22.2474L25.3949 23.0717L24.8679 23.8082Z" fill="#00D1FF"/>
<path d="M19.9016 16.8826L10.0843 23.1797L9.78027 22.6797L20.1449 16.0312L19.9016 16.8826Z" fill="#868AFF"/>
<path d="M12.4897 11.2337L13.2532 11.7945L12.9559 10.9229L12.4897 11.2337Z" fill="#868AFF"/>
<path d="M14.6992 10.1259L15.2735 10.8759L15.233 9.95703L14.6992 10.1259Z" fill="#868AFF"/>
<path d="M17.2598 9.68701L17.5841 10.5721L17.8206 9.68701H17.2598Z" fill="#868AFF"/>
<path d="M19.7871 9.99756L19.8412 10.9435L20.3209 10.1597L19.7871 9.99756Z" fill="#868AFF"/>
<path d="M11.024 12.4839L11.4766 13.3149L10.6523 12.9096L11.024 12.4839Z" fill="#868AFF"/>
<path d="M9.57103 14.6455L10.2467 15.3009L9.34131 15.159L9.57103 14.6455Z" fill="#868AFF"/>
<path d="M8.82139 17.0786L9.65921 17.511L8.74707 17.6327L8.82139 17.0786Z" fill="#868AFF"/>
</svg>
