<svg width="37" height="35" viewBox="0 0 37 35" fill="none" xmlns="http://www.w3.org/2000/svg">
<path d="M36.6486 0H0V34.4139H36.6486V0Z" fill="#FFE252"/>
<path d="M25.8306 24.1444H10.2757C8.84463 24.1444 7.68701 22.9891 7.68701 21.561V16.1895H28.4238V21.561C28.4192 22.9891 27.2616 24.1444 25.8306 24.1444Z" fill="#6559FF"/>
<path d="M29.2076 14.0377C28.8293 14.0377 28.5194 13.733 28.5194 13.3509V12.8779C28.5194 12.5004 28.2141 12.1911 27.8312 12.1911H22.5809C22.0249 12.1911 21.5692 11.8773 21.5692 11.3178C21.5692 10.9176 21.241 10.7266 20.84 10.7266H14.7602C14.3592 10.7266 14.031 10.9176 14.031 11.3178C14.031 11.8727 13.5798 12.1911 13.0192 12.1911H8.37055C7.99228 12.1911 7.68236 12.4958 7.68236 12.8779V13.3509C7.68236 13.733 7.36789 14.0332 6.98506 14.0377C6.61134 14.0423 6.31055 14.347 6.31055 14.7245V16.189H29.8912V14.7245C29.8912 14.347 29.5859 14.0377 29.2076 14.0377Z" fill="#63CA9F"/>
<path d="M19.8465 13.2242H15.886C15.3163 13.2242 14.856 12.7648 14.856 12.1963H20.8765C20.8765 12.7603 20.4161 13.2242 19.8465 13.2242Z" fill="#0A9960"/>
<path d="M28.4238 16.1895H7.68701V16.6716H28.4238V16.1895Z" fill="#4740CF"/>
<path d="M14.0309 17.1625H11.1323V15.3705C11.1323 15.2431 11.2371 15.1431 11.3602 15.1431H13.7985C13.9261 15.1431 14.0264 15.2477 14.0264 15.3705V17.1625H14.0309Z" fill="white"/>
<path d="M14.0358 15.5386H11.1372V17.1623H14.0358V15.5386Z" fill="#F0F0FF"/>
<path d="M24.4679 17.2032H21.5693V15.4066C21.5693 15.2793 21.6742 15.1792 21.7972 15.1792H24.2355C24.3631 15.1792 24.4634 15.2838 24.4634 15.4066V17.2032H24.4679Z" fill="white"/>
<path d="M24.4674 15.5791H21.5688V17.2028H24.4674V15.5791Z" fill="#F0F0FF"/>
<path d="M17.8003 23.0388C19.2929 23.0388 20.5029 21.8312 20.5029 20.3417C20.5029 18.8521 19.2929 17.6445 17.8003 17.6445C16.3077 17.6445 15.0977 18.8521 15.0977 20.3417C15.0977 21.8312 16.3077 23.0388 17.8003 23.0388Z" fill="white"/>
<path d="M18.3425 18.7139H17.2578V21.975H18.3425V18.7139Z" fill="#FF656C"/>
<path d="M19.4336 20.8833V19.8008H16.1658V20.8833H19.4336Z" fill="#FF656C"/>
<path d="M7.68701 16.6719V20.1695L12.837 17.1631H11.1371V16.3535L8.07896 16.4308L7.68701 16.6719Z" fill="#4740CF"/>
<path d="M14.8555 12.1963C14.8555 12.1963 14.8418 13.156 15.8855 13.2242L17.868 12.1963H14.8555Z" fill="#037745"/>
</svg>
