<svg width="82" height="77" viewBox="0 0 82 77" fill="none" xmlns="http://www.w3.org/2000/svg">
<path d="M82.0001 0H0.00012207V77H82.0001V0Z" fill="#0086D0"/>
<path d="M30.2691 54.3553C20.7511 54.3553 13 46.6561 13 37.1776C13 27.71 20.7511 20 30.2691 20C39.7872 20 47.5382 27.71 47.5382 37.1776C47.5382 46.6561 39.798 54.3553 30.2691 54.3553ZM30.2691 23.235C22.5398 23.235 16.2522 29.4892 16.2522 37.1776C16.2522 44.8661 22.5398 51.1203 30.2691 51.1203C37.9985 51.1203 44.2861 44.8661 44.2861 37.1776C44.2861 29.4892 37.9985 23.235 30.2691 23.235Z" fill="#FFD700"/>
<path d="M59.1207 29.8831L43.2643 45.8734L46.8915 49.4322L62.7479 33.442L59.1207 29.8831Z" fill="#FFD700"/>
<path d="M60.0266 24.3672L58.303 29.5755L63.1704 34.3201L68.71 32.4977L60.0266 24.3672Z" fill="#FFD700"/>
<path d="M49.1102 32.3361H21.2389V34.827H49.1102V32.3361Z" fill="#FA002A"/>
<path d="M48.2429 34.8378H22.2362V55.0455C22.2362 56.6738 23.5588 58.0001 25.2065 58.0001H45.2834C46.9203 58.0001 48.2537 56.6845 48.2537 55.0455V34.8378H48.2429Z" fill="#FFD700"/>
<path d="M22.2362 52.3819V48.597C21.5532 48.1226 20.9136 47.5834 20.3282 47.0011V51.2173C20.9353 51.6487 21.5749 52.0369 22.2362 52.3819Z" fill="#FF9500"/>
<path d="M46.1615 30.449H42.5408C42.8768 31.0528 43.1695 31.689 43.4189 32.3468H46.8445C46.6494 31.689 46.4217 31.0636 46.1615 30.449Z" fill="#FF9500"/>
<path d="M22.2362 46.5914V45.0063L48.2429 36.6816V38.2668L22.2362 46.5914Z" fill="#FA002A"/>
<path d="M22.2362 50.5057V48.9206L48.2429 40.5959V42.1811L22.2362 50.5057Z" fill="#FA002A"/>
<path d="M22.2362 54.3337V52.7486L48.2429 44.424V46.0091L22.2362 54.3337Z" fill="#FA002A"/>
<path d="M45.2834 58C46.9204 58 48.2538 56.6845 48.2538 55.0454V40.8547L26.4641 58H45.2834Z" fill="#FFAE00"/>
<path d="M61.566 32.7566L63.1705 34.3202L68.71 32.4978L65.2519 29.2521L61.566 32.7566Z" fill="#FFAE00"/>
<path d="M47.896 48.4138L62.52 33.6732L61.5877 32.7566L47.9502 45.6857L47.896 48.4138Z" fill="#FFAE00"/>
<path d="M37.1854 49.546L48.2429 46.0091V44.424L40.5894 46.8717L37.1854 49.546Z" fill="#CC0007"/>
<path d="M48.2429 48.0687L50.1509 46.1493V38.9353L48.2429 40.8547V48.0687Z" fill="#FF9500"/>
<path d="M57.5333 31.4842L61.1866 35.0211L62.52 33.6732L58.8776 30.1255L57.5333 31.4842Z" fill="#FF9500"/>
<path d="M68.4606 33.1879L59.4087 24.2163L60.6228 23.0086C61.0565 22.5772 61.7503 22.5772 62.1839 23.0086L69.6748 30.4382C70.1084 30.8695 70.1084 31.5596 69.6748 31.991L68.4606 33.1879Z" fill="#FA002A"/>
<path d="M66.8996 27.6885L64.8616 29.6295L68.4607 33.1987L69.6748 31.991C70.1084 31.5596 70.0976 30.8695 69.6748 30.4382L66.8996 27.6885Z" fill="#CC0007"/>
<path d="M48.2428 40.8547V42.1811L45.4026 43.0869L48.2428 40.8547Z" fill="#CC0007"/>
</svg>
