<svg width="37" height="35" viewBox="0 0 37 35" fill="none" xmlns="http://www.w3.org/2000/svg">
<path d="M36.6486 0H0V34.4139H36.6486V0Z" fill="#0A9E60"/>
<path d="M20.7745 24.3828H18.4736H18.3826H16.0817L15.1587 28.1463H18.3826H18.4736H21.6975L20.7745 24.3828Z" fill="#E9EEF6"/>
<path opacity="0.65" d="M15.8154 25.4655L20.9308 25.0144L20.7748 24.3828H16.0819L15.8154 25.4655Z" fill="#505F79"/>
<path d="M29.2891 24.5953H7.56672C6.35125 24.5953 5.36328 23.6158 5.36328 22.4107V7.99469C5.36328 6.7896 6.35125 5.81006 7.56672 5.81006H29.2891C30.5046 5.81006 31.4926 6.7896 31.4926 7.99469V22.4107C31.4926 23.6158 30.5046 24.5953 29.2891 24.5953Z" fill="#E9EEF6"/>
<path opacity="0.65" d="M18.4281 23.2613C18.9558 23.2613 19.3836 22.8372 19.3836 22.314C19.3836 21.7908 18.9558 21.3667 18.4281 21.3667C17.9004 21.3667 17.4727 21.7908 17.4727 22.314C17.4727 22.8372 17.9004 23.2613 18.4281 23.2613Z" fill="#505F79"/>
<path d="M29.2634 6.83496H7.62553C6.98205 6.83496 6.45557 7.35695 6.45557 7.99494V19.3499C6.45557 19.7236 6.76106 20.033 7.14455 20.033H29.7444C30.1214 20.033 30.4334 19.7301 30.4334 19.3499V7.99494C30.4334 7.35695 29.9069 6.83496 29.2634 6.83496Z" fill="#0B1B35"/>
<path opacity="0.65" d="M16.9849 27.6886H21.5871L21.4961 27.3213L16.9849 27.6886Z" fill="#505F79"/>
<path d="M22.5034 27.688H14.0797C13.6312 27.688 13.2607 28.0038 13.1762 28.4226C13.1697 28.5193 13.2412 28.6031 13.3452 28.6031H13.3517H23.2314H23.2379C23.3354 28.6031 23.4134 28.5193 23.4069 28.4226C23.3224 28.0038 22.9519 27.688 22.5034 27.688Z" fill="#E9EEF6"/>
<rect x="9.81104" y="9.70117" width="11.6748" height="8.6171" rx="3" fill="#334462"/>
<rect x="13.7026" y="8.31152" width="13.6206" height="9.45102" rx="3" fill="white"/>
</svg>
