<svg width="37" height="35" viewBox="0 0 37 35" fill="none" xmlns="http://www.w3.org/2000/svg">
<path d="M36.6486 0.318359H0V34.7323H36.6486V0.318359Z" fill="#081833"/>
<path d="M24.4408 12.8408H11.7983V24.4837H24.4408V12.8408Z" fill="#7A7DFF"/>
<path d="M25.2856 26.8931H10.9161C10.6489 26.8931 10.4253 26.6806 10.4253 26.4135V26.1646C10.4253 25.9036 10.6427 25.6851 10.9161 25.6851H25.2856C25.5527 25.6851 25.7764 25.8975 25.7764 26.1646V26.4135C25.7764 26.6806 25.5527 26.8931 25.2856 26.8931Z" fill="#A0A8FF"/>
<path d="M25.2856 25.686H10.9161C10.6489 25.686 10.4253 25.4736 10.4253 25.2065V24.9576C10.4253 24.6966 10.6427 24.478 10.9161 24.478H25.2856C25.5527 24.478 25.7764 24.6905 25.7764 24.9576V25.2065C25.7764 25.4736 25.5527 25.686 25.2856 25.686Z" fill="#868AFF"/>
<path d="M23.0929 24.478H22.6953V25.686H23.0929V24.478Z" fill="#7A7DFF"/>
<path d="M25.2856 28.0955H10.9161C10.6489 28.0955 10.4253 27.883 10.4253 27.6159V27.3731C10.4253 27.1121 10.6427 26.8936 10.9161 26.8936H25.2856C25.5527 26.8936 25.7764 27.106 25.7764 27.3731V27.622C25.7764 27.883 25.5527 28.0955 25.2856 28.0955Z" fill="#C2C5FF"/>
<path d="M11.7985 15.8701H8.01508C7.84113 15.8701 7.69824 15.7305 7.69824 15.5605V13.4541H12.5005V15.172C12.5067 15.5605 12.1899 15.8701 11.7985 15.8701Z" fill="#C2C5FF"/>
<path d="M7.99644 25.6851H11.7985C12.1899 25.6851 12.5067 25.9946 12.5067 26.3771V28.095H7.69824V25.9704C7.69824 25.8125 7.83492 25.6851 7.99644 25.6851Z" fill="#C2C5FF"/>
<path d="M11.7983 15.8696H8.40625V25.6853H11.7983V15.8696Z" fill="#A0A8FF"/>
<path d="M6.97183 13.4598H29.2374C29.4486 13.4598 29.5232 13.1381 29.343 13.0106L20.6642 6.95246C19.0862 5.85374 17.123 5.85374 15.5451 6.95246L6.86622 13.0106C6.68605 13.1381 6.7606 13.4598 6.97183 13.4598Z" fill="#D9DBFF"/>
<path d="M28.92 29.2243H7.28186C6.96503 29.2243 6.7041 28.9754 6.7041 28.6598C6.7041 28.3502 6.95881 28.0952 7.28186 28.0952H28.92C29.2368 28.0952 29.4977 28.3441 29.4977 28.6598C29.4977 28.9693 29.2368 29.2243 28.92 29.2243Z" fill="#D9DBFF"/>
<path d="M9.0498 28.0986H13.8521V25.6887H9.0498V28.0986Z" fill="#C2C5FF"/>
<path d="M13.1464 15.8696H9.75439V25.6853H13.1464V15.8696Z" fill="#A0A8FF"/>
<path d="M24.4409 15.8701H28.2243C28.3982 15.8701 28.5411 15.7305 28.5411 15.5605V13.4541H23.7389V15.172C23.7326 15.5605 24.0495 15.8701 24.4409 15.8701Z" fill="#C2C5FF"/>
<path d="M28.2427 25.6851H24.4406C24.0493 25.6851 23.7324 25.9946 23.7324 26.3771V28.095H28.5347V25.9704C28.5347 25.8125 28.4042 25.6851 28.2427 25.6851Z" fill="#C2C5FF"/>
<path d="M24.4327 25.688L27.8247 25.688L27.8247 15.8723L24.4327 15.8723L24.4327 25.688Z" fill="#A0A8FF"/>
<path d="M27.1865 25.6851H22.3843V28.095H27.1865V25.6851Z" fill="#C2C5FF"/>
<path d="M23.087 25.688L26.479 25.688L26.479 15.8723L23.087 15.8723L23.087 25.688Z" fill="#A0A8FF"/>
<path d="M22.3844 26.8936H21.9868V28.1015H22.3844V26.8936Z" fill="#A0A8FF"/>
<path d="M22.3844 25.6851H21.9868V26.8931H22.3844V25.6851Z" fill="#868AFF"/>
<path d="M20.086 15.8696H16.0728V24.4773H20.086V15.8696Z" fill="#6E6BFF"/>
<path d="M23.7327 13.4604H12.6123V15.8704H23.7327V13.4604Z" fill="#A0A8FF"/>
<path d="M13.6374 15.8704H9.04639V13.4604H13.8486V15.664C13.8549 15.7793 13.7555 15.8704 13.6374 15.8704Z" fill="#C2C5FF"/>
<path d="M22.5955 15.8704H27.1865V13.4604H22.3843V15.664C22.3843 15.7793 22.4775 15.8704 22.5955 15.8704Z" fill="#C2C5FF"/>
<path d="M19.937 28.0952L22.1859 27.0269V28.0952H19.937Z" fill="#A0A8FF"/>
<path d="M19.937 26.8933L22.1859 25.8188V26.8933H19.937Z" fill="#868AFF"/>
<path d="M20.0854 25.6855L22.8935 24.5625V25.6855H20.0854Z" fill="#7A7DFF"/>
<path d="M20.6514 24.4777L23.0929 23.3062V24.4777H20.6514Z" fill="#6E6BFF"/>
<path d="M20.086 24.4776H16.0728V23.1603L20.086 21.1875V24.4776Z" fill="#6559FF"/>
</svg>
