<svg width="37" height="35" viewBox="0 0 37 35" fill="none" xmlns="http://www.w3.org/2000/svg">
<path d="M36.7267 0H0V34.4021H36.7267V0Z" fill="#14CAFF"/>
<path d="M25.4554 26.6932H10.9017C8.8257 26.6932 7.15186 25.0031 7.15186 22.9313C7.15186 20.8486 8.83657 19.1694 10.9017 19.1694H25.4554C27.5314 19.1694 29.2053 20.8596 29.2053 22.9313H29.2705C29.2705 25.0031 27.5205 26.6932 25.4554 26.6932Z" fill="#0084CE"/>
<path d="M23.673 10.2939H13.9561V17.2398C13.9561 17.9158 14.4995 18.461 15.1734 18.461H23.673V10.2939Z" fill="#FFAC00"/>
<path d="M21.2275 10.2939H13.9561V18.461H21.2275V10.2939Z" fill="#FFD500"/>
<path d="M18.2061 8.39648H24.858C25.0971 8.39648 25.2167 8.67999 25.0537 8.84355L23.6733 10.2829H16.4019L18.2061 8.39648Z" fill="#FFD500"/>
<path d="M12.2821 7.61133H18.4448C18.6731 7.61133 18.8905 7.70946 19.0426 7.88393L21.2165 10.2937H13.945L12.0321 8.16743C11.8473 7.94935 11.9995 7.61133 12.2821 7.61133Z" fill="#FFAC00"/>
<path d="M26.7488 27.3366H10.4995C8.05399 27.3366 6.06494 25.3412 6.06494 22.8878C6.06494 20.4344 8.05399 18.439 10.4995 18.439H26.7488C29.1944 18.439 31.1834 20.4344 31.1834 22.8878C31.1834 25.3412 29.1944 27.3366 26.7488 27.3366ZM10.4995 20.14C8.98873 20.14 7.76052 21.3721 7.76052 22.8878C7.76052 24.4035 8.98873 25.6356 10.4995 25.6356H26.7488C28.2596 25.6356 29.4878 24.4035 29.4878 22.8878C29.4878 21.3721 28.2596 20.14 26.7488 20.14H10.4995Z" fill="#0066AD"/>
<path d="M14.293 21.5798H10.7497C10.2606 21.5798 9.8584 21.1764 9.8584 20.6857V19.628C9.8584 19.1373 10.2606 18.7339 10.7497 18.7339H14.293C14.7821 18.7339 15.1843 19.1373 15.1843 19.628V20.6857C15.1951 21.1764 14.793 21.5798 14.293 21.5798Z" fill="#0066AD"/>
<path d="M19.4772 21.5798H18.0534C17.5643 21.5798 17.1621 21.1764 17.1621 20.6857V19.628C17.1621 19.1373 17.5643 18.7339 18.0534 18.7339H19.4772C19.9663 18.7339 20.3685 19.1373 20.3685 19.628V20.6857C20.3685 21.1764 19.9663 21.5798 19.4772 21.5798Z" fill="#0066AD"/>
<path d="M26.325 21.5798H23.2599C22.7708 21.5798 22.3687 21.1764 22.3687 20.6857V19.628C22.3687 19.1373 22.7708 18.7339 23.2599 18.7339H26.325C26.8141 18.7339 27.2163 19.1373 27.2163 19.628V20.6857C27.2163 21.1764 26.8141 21.5798 26.325 21.5798Z" fill="#0066AD"/>
<path d="M14.293 27.0642H10.7497C10.2606 27.0642 9.8584 26.6608 9.8584 26.1701V25.1124C9.8584 24.6217 10.2606 24.2183 10.7497 24.2183H14.293C14.7821 24.2183 15.1843 24.6217 15.1843 25.1124V26.1701C15.1951 26.6608 14.793 27.0642 14.293 27.0642Z" fill="#0066AD"/>
<path d="M19.4772 27.0642H18.0534C17.5643 27.0642 17.1621 26.6608 17.1621 26.1701V25.1124C17.1621 24.6217 17.5643 24.2183 18.0534 24.2183H19.4772C19.9663 24.2183 20.3685 24.6217 20.3685 25.1124V26.1701C20.3685 26.6608 19.9663 27.0642 19.4772 27.0642Z" fill="#0066AD"/>
<path d="M26.325 27.0642H23.2599C22.7708 27.0642 22.3687 26.6608 22.3687 26.1701V25.1124C22.3687 24.6217 22.7708 24.2183 23.2599 24.2183H26.325C26.8141 24.2183 27.2163 24.6217 27.2163 25.1124V26.1701C27.2163 26.6608 26.8141 27.0642 26.325 27.0642Z" fill="#0066AD"/>
<path d="M26.825 19.4961H10.5322V20.1503H26.825V19.4961Z" fill="#0066AD"/>
<path d="M26.825 25.625H10.5322V26.2792H26.825V25.625Z" fill="#0066AD"/>
<path d="M10.5321 26.2784C12.399 26.2784 13.9124 24.7601 13.9124 22.8872C13.9124 21.0144 12.399 19.4961 10.5321 19.4961C8.66526 19.4961 7.15186 21.0144 7.15186 22.8872C7.15186 24.7601 8.66526 26.2784 10.5321 26.2784Z" fill="white"/>
<path d="M10.5323 24.7853C11.5768 24.7853 12.4236 23.9359 12.4236 22.888C12.4236 21.8402 11.5768 20.9907 10.5323 20.9907C9.48784 20.9907 8.64111 21.8402 8.64111 22.888C8.64111 23.9359 9.48784 24.7853 10.5323 24.7853Z" fill="#0066AD"/>
<path d="M10.5321 23.7598C11.0124 23.7598 11.4017 23.3692 11.4017 22.8875C11.4017 22.4057 11.0124 22.0151 10.5321 22.0151C10.0519 22.0151 9.6626 22.4057 9.6626 22.8875C9.6626 23.3692 10.0519 23.7598 10.5321 23.7598Z" fill="#0066AD"/>
<path d="M26.7489 26.2784C28.6158 26.2784 30.1292 24.7601 30.1292 22.8872C30.1292 21.0144 28.6158 19.4961 26.7489 19.4961C24.8821 19.4961 23.3687 21.0144 23.3687 22.8872C23.3687 24.7601 24.8821 26.2784 26.7489 26.2784Z" fill="white"/>
<path d="M26.8033 24.7853C27.8478 24.7853 28.6946 23.9359 28.6946 22.888C28.6946 21.8402 27.8478 20.9907 26.8033 20.9907C25.7588 20.9907 24.9121 21.8402 24.9121 22.888C24.9121 23.9359 25.7588 24.7853 26.8033 24.7853Z" fill="#0066AD"/>
<path d="M26.8031 23.7598C27.2833 23.7598 27.6727 23.3692 27.6727 22.8875C27.6727 22.4057 27.2833 22.0151 26.8031 22.0151C26.3229 22.0151 25.9336 22.4057 25.9336 22.8875C25.9336 23.3692 26.3229 23.7598 26.8031 23.7598Z" fill="#0066AD"/>
</svg>
