<svg width="82" height="77" viewBox="0 0 82 77" fill="none" xmlns="http://www.w3.org/2000/svg">
<path d="M82 0H0V77H82V0Z" fill="#FFC300"/>
<path d="M55.9955 20.4166L47.979 16.6095L50.1456 12.0442C50.5789 11.1311 51.6622 10.7442 52.5753 11.1775L57.2954 13.4215C58.2085 13.8549 58.5954 14.9382 58.1621 15.8512L55.9955 20.4166Z" fill="#4740D4"/>
<path d="M52.34 12.55L51.9205 12.351L49.5316 17.3841L49.951 17.5831L52.34 12.55Z" fill="#C2C5FF"/>
<path d="M53.8602 13.2499L53.4408 13.0508L51.0518 18.0839L51.4713 18.283L53.8602 13.2499Z" fill="#C2C5FF"/>
<path d="M55.3419 13.9913L54.9225 13.7922L52.5335 18.8253L52.9529 19.0244L55.3419 13.9913Z" fill="#C2C5FF"/>
<path d="M54.0201 19.4946L54.4402 19.6923L56.8119 14.6514L56.3918 14.4537L54.0201 19.4946Z" fill="#C2C5FF"/>
<path d="M41.3243 67.7261C55.8629 67.7261 67.6487 55.9402 67.6487 41.4017C67.6487 26.8632 55.8629 15.0774 41.3243 15.0774C26.7858 15.0774 15 26.8632 15 41.4017C15 55.9402 26.7858 67.7261 41.3243 67.7261Z" fill="#6559FF"/>
<path d="M41.3243 61.5976C52.4782 61.5976 61.5202 52.5556 61.5202 41.4017C61.5202 30.2478 52.4782 21.2058 41.3243 21.2058C30.1704 21.2058 21.1284 30.2478 21.1284 41.4017C21.1284 52.5556 30.1704 61.5976 41.3243 61.5976Z" fill="white"/>
<path d="M41.309 41.4326L39.8853 37.8577L52.3433 32.9673C52.9159 32.7507 53.3956 33.4316 52.9933 33.8959L44.1875 43.9861L41.309 41.4326Z" fill="#E6004F"/>
<path d="M41.3245 41.4171L42.7482 44.992L30.6152 49.7431C29.9652 49.9907 29.4081 49.2015 29.8724 48.6753L38.446 38.8481L41.3245 41.4171Z" fill="#01B8FF"/>
<path d="M41.3089 45.2862C43.4371 45.2862 45.1624 43.5609 45.1624 41.4327C45.1624 39.3045 43.4371 37.5792 41.3089 37.5792C39.1807 37.5792 37.4554 39.3045 37.4554 41.4327C37.4554 43.5609 39.1807 45.2862 41.3089 45.2862Z" fill="#01B8FF"/>
<path d="M38.1521 43.6457C39.3747 45.379 41.7735 45.7969 43.5068 44.5743L39.0807 38.2756C37.3474 39.5137 36.9295 41.9124 38.1521 43.6457Z" fill="#E6004F"/>
<path d="M49.4953 25.4462L50.5632 25.9414L48.6751 29.9651L47.7621 29.5318L47.1895 26.6069L46.168 28.789L45.1002 28.2937L46.9883 24.27L47.9632 24.7188L48.5204 27.5509L49.4953 25.4462Z" fill="#E6004F"/>
</svg>
