<svg width="37" height="35" viewBox="0 0 37 35" fill="none" xmlns="http://www.w3.org/2000/svg">
<path d="M36.6486 0H0V34.4139H36.6486V0Z" fill="#00ABF6"/>
<path d="M29.0791 12.5871L26.6236 8.23579C25.9437 7.02602 23.8355 6.77236 22.637 7.75774L21.1451 8.98214C20.0592 9.86996 18.2787 9.99191 17.0461 9.26507L16.2537 8.79677C14.8889 7.98701 12.8932 8.19189 11.8073 9.25044L8.57403 12.4017C8.12402 12.8358 7.46856 13.1188 6.74951 13.1871L11.729 15.2749L22.1381 13.2797L27.3622 12.5724L29.0791 12.5871Z" fill="#FF424B"/>
<path d="M26.3106 12.6599L15.8183 15.0355L10.4475 14.733L6.73975 13.1769C7.45879 13.1135 8.11914 12.8306 8.56427 12.3916L11.7975 9.24031C12.365 8.68908 13.1818 8.36713 14.0232 8.30371C14.0232 8.30371 15.8428 8.46957 17.1146 10.4745C18.3962 12.4891 23.224 7.94761 26.3106 12.6599Z" fill="#FA002A"/>
<path d="M24.6668 13.7334L6.85693 15.9285C6.85693 17.1627 7.85969 18.1627 9.09723 18.1627H11.3962V20.4701L15.7643 23.7335H31.9943L30.7127 18.0456L28.7219 17.7578L24.6668 13.7334Z" fill="#4740D0"/>
<path d="M30.7319 17.2012H31.9939C32.1016 17.2012 32.1896 17.289 32.1896 17.3963V22.3281L30.7319 17.2012Z" fill="#FFAA00"/>
<path d="M30.1161 12.0701C30.1161 11.9481 30.0182 11.8506 29.8959 11.8506H9.56205H7.80601C7.64459 11.8506 7.49295 11.9042 7.37066 12.0067L4.09826 14.6262C3.92706 14.7628 3.98087 15.0311 4.18631 15.0994L5.1646 15.4067L7.9821 13.1286H29.8959C30.0182 13.1286 30.1161 13.0311 30.1161 12.9091V12.0701Z" fill="#F8D100"/>
<path d="M21.1842 13.1284H7.98204L5.16455 15.4065L19.4966 19.7578C20.333 20.0114 21.1793 19.387 21.1793 18.5138V16.2065L25.5474 13.1284H21.1842Z" fill="#FFAA00"/>
<path d="M29.8715 17.2017H24.6963V13.7334H27.2937C27.7046 13.7334 28.0812 13.9578 28.2817 14.3139L29.8715 17.2017Z" fill="#FFAA00"/>
<path d="M25.5522 14.5679V16.4703H28.404L27.5235 14.763C27.4599 14.641 27.3376 14.5679 27.2007 14.5679H25.5522Z" fill="#6559FF"/>
<path d="M32.1948 17.4897V18.7922C32.3465 18.7922 32.4736 18.6702 32.4736 18.5141V17.7678C32.4687 17.6166 32.3465 17.4897 32.1948 17.4897Z" fill="#6559FF"/>
<path d="M19.8633 20.9526H17.0067C16.7426 20.9526 16.5322 21.1624 16.5322 21.4258V24.1722C16.5322 24.4356 16.7426 24.6454 17.0067 24.6454H19.8633C20.1275 24.6454 20.3378 24.4356 20.3378 24.1722V21.4258C20.3378 21.1624 20.1226 20.9526 19.8633 20.9526Z" fill="#FFAA00"/>
<path opacity="0.38" d="M16.5323 21.4262L13.7246 19.8115L15.7595 23.7286L16.5323 23.7335V21.4262Z" fill="#1E0078"/>
<path opacity="0.38" d="M30.8644 21.4408L28.0371 19.8115L30.072 23.7286L31.5296 23.7335L30.8644 21.4408Z" fill="#1E0078"/>
<path d="M11.3231 28.2656C13.8517 28.2656 15.9015 26.2214 15.9015 23.6997C15.9015 21.178 13.8517 19.1338 11.3231 19.1338C8.79446 19.1338 6.74463 21.178 6.74463 23.6997C6.74463 26.2214 8.79446 28.2656 11.3231 28.2656Z" fill="#6559FF"/>
<path d="M11.323 27.6994C13.5193 27.6994 15.2997 25.9238 15.2997 23.7335C15.2997 21.5432 13.5193 19.7676 11.323 19.7676C9.12665 19.7676 7.34619 21.5432 7.34619 23.7335C7.34619 25.9238 9.12665 27.6994 11.323 27.6994Z" fill="#4740D0"/>
<path d="M11.3227 25.6067C12.379 25.6067 13.2353 24.7527 13.2353 23.6993C13.2353 22.6459 12.379 21.792 11.3227 21.792C10.2664 21.792 9.41016 22.6459 9.41016 23.6993C9.41016 24.7527 10.2664 25.6067 11.3227 25.6067Z" fill="#8E8BFC"/>
<path d="M11.3232 25.0507C12.0553 25.0507 12.6487 24.4588 12.6487 23.7287C12.6487 22.9986 12.0553 22.4067 11.3232 22.4067C10.591 22.4067 9.99756 22.9986 9.99756 23.7287C9.99756 24.4588 10.591 25.0507 11.3232 25.0507Z" fill="#C5C5FC"/>
<path d="M25.6502 28.2656C28.1788 28.2656 30.2286 26.2214 30.2286 23.6997C30.2286 21.178 28.1788 19.1338 25.6502 19.1338C23.1216 19.1338 21.0718 21.178 21.0718 23.6997C21.0718 26.2214 23.1216 28.2656 25.6502 28.2656Z" fill="#6559FF"/>
<path d="M25.6501 27.6994C27.8464 27.6994 29.6269 25.9238 29.6269 23.7335C29.6269 21.5432 27.8464 19.7676 25.6501 19.7676C23.4538 19.7676 21.6733 21.5432 21.6733 23.7335C21.6733 25.9238 23.4538 27.6994 25.6501 27.6994Z" fill="#4740D0"/>
<path d="M25.6504 25.6067C26.7066 25.6067 27.5629 24.7527 27.5629 23.6993C27.5629 22.6459 26.7066 21.792 25.6504 21.792C24.5941 21.792 23.7378 22.6459 23.7378 23.6993C23.7378 24.7527 24.5941 25.6067 25.6504 25.6067Z" fill="#8E8BFC"/>
<path d="M25.6503 25.0507C26.3824 25.0507 26.9759 24.4588 26.9759 23.7287C26.9759 22.9986 26.3824 22.4067 25.6503 22.4067C24.9182 22.4067 24.3247 22.9986 24.3247 23.7287C24.3247 24.4588 24.9182 25.0507 25.6503 25.0507Z" fill="#C5C5FC"/>
<path d="M32.6501 23.5427L31.3392 17.6987L31.3049 17.5475C31.2609 17.3426 31.0799 17.2012 30.8696 17.2012H30.7375H22.0454C21.9084 17.2012 21.7959 17.3134 21.7959 17.45V18.2256C21.7959 18.3622 21.9084 18.4744 22.0454 18.4744H30.2044L31.349 23.5817C31.3685 23.6647 31.4419 23.7281 31.53 23.7281H32.4985C32.6012 23.7281 32.6697 23.6354 32.6501 23.5427Z" fill="#F8D100"/>
</svg>
