<svg width="82" height="77" viewBox="0 0 82 77" fill="none" xmlns="http://www.w3.org/2000/svg">
<path d="M82.0001 0H0.00012207V77H82.0001V0Z" fill="#42526E"/>
<path d="M41.0882 22.2811H65.9717C66.9485 22.2811 67.5246 23.3875 66.9736 24.1922L54.6758 42.2968L41.0882 62.3126L27.4881 42.2968L15.1903 24.1922C14.6393 23.375 15.2154 22.2811 16.1922 22.2811H41.0882Z" fill="#DFF8FE"/>
<path d="M54.9639 22.2811H41.0883L48.0261 17.7172L53.0854 14.3854C54.1374 13.6939 55.54 13.958 56.2788 14.9764L61.501 22.2685H54.9639V22.2811Z" fill="#DFF8FE"/>
<path d="M27.2 22.2811H41.0882L34.1379 17.7172L29.0785 14.398C28.0266 13.7065 26.624 13.9705 25.8851 14.9889L20.663 22.2811H27.2Z" fill="#DFF8FE"/>
<path d="M41.0884 22.2811L34.5513 31.4089L41.0884 40.5367L47.6129 31.4089L41.0884 22.2811Z" fill="#FF424B"/>
<path d="M42.5533 64.2361L50.6057 52.7824C51.019 52.1915 51.044 51.4246 50.6809 50.7959L41.0881 34.7532L31.4954 50.7959C31.1322 51.412 31.1573 52.1915 31.5705 52.7824L35.8284 58.8424L39.6229 64.2361C40.3242 65.2545 41.8395 65.2545 42.5533 64.2361Z" fill="#FF424B"/>
<path d="M61.4885 22.2811L53.6115 27.4611L65.9718 22.2811H61.4885Z" fill="#00BAFF"/>
<path d="M20.6755 22.2811L28.5526 27.4611L16.1923 22.2811H20.6755Z" fill="#00BAFF"/>
<path d="M25.1212 25.2104L30.3809 28.6679C30.5563 28.7811 30.5938 29.02 30.4811 29.1834C30.3684 29.3468 30.143 29.3846 29.9802 29.2714L23.5057 24.871L25.1212 25.2104Z" fill="#00BAFF"/>
<path d="M57.0303 25.2104L51.7706 28.6679C51.5953 28.7811 51.5577 29.02 51.6704 29.1834C51.7831 29.3468 52.0085 29.3846 52.1713 29.2714L58.6458 24.871L57.0303 25.2104Z" fill="#00BAFF"/>
</svg>
