<svg width="82" height="77" viewBox="0 0 82 77" fill="none" xmlns="http://www.w3.org/2000/svg">
<path d="M82.0001 0H0.00012207V77H82.0001V0Z" fill="#FF9500"/>
<path d="M50.0542 67.8673L19.3389 56.6436C18.2783 56.2605 17.7409 55.0827 18.1228 54.0327L30.0723 21.085C30.4541 20.0208 31.6279 19.4816 32.6743 19.8648L63.4037 31.0885C64.4644 31.4716 65.0017 32.6494 64.6199 33.6994L52.6704 66.6471C52.2744 67.7113 51.1148 68.2646 50.0542 67.8673Z" fill="#574CF0"/>
<path d="M64.3156 29.1318L35.4259 18.5789L21.9333 55.7666L50.823 66.3196L64.3156 29.1318Z" fill="#14CAFF"/>
<path d="M47.6077 59.9355L21.9268 55.7638L35.4319 18.5735L61.0986 22.7452L47.6077 59.9355Z" fill="#70DFFF"/>
<path d="M43.7612 54.1745L21.9268 55.7638L35.4319 18.5735L57.2522 16.9843L43.7612 54.1745Z" fill="#DFF8FE"/>
<path d="M39.3213 47.5059L19.3394 56.6439C18.2788 56.2608 17.7414 55.083 18.1232 54.033L30.0728 21.0854C30.4546 20.0212 31.6284 19.482 32.6748 19.8651L51.9214 11.0677C52.5294 10.7981 53.1517 11.3798 52.9254 12.0042L40.5092 46.2147C40.3112 46.7823 39.887 47.2505 39.3213 47.5059Z" fill="#7A7DFF"/>
<path d="M32.6743 19.8648L25.8015 38.6089L46.6036 13.4938L32.6743 19.8648Z" fill="#4740D4"/>
<path d="M28.9268 30.0953L22.6762 46.9097C22.5631 47.2219 22.7894 47.5482 23.1146 47.5482C23.3126 47.5482 23.4823 47.4205 23.553 47.2361L29.5773 30.6345L28.9268 30.0953Z" fill="#4740D4"/>
</svg>
