<svg width="37" height="35" viewBox="0 0 37 35" fill="none" xmlns="http://www.w3.org/2000/svg">
<path d="M36.6486 0.318359H0V34.7323H36.6486V0.318359Z" fill="#FF656C"/>
<path d="M21.9629 6.12842C19.1594 6.12842 16.8872 8.40065 16.8872 11.2041V11.4356V17.5422H27.0386V11.4356V11.2041C27.0334 8.40065 24.7611 6.12842 21.9629 6.12842Z" fill="#FFD700"/>
<path d="M23.6669 6.42823C23.1304 6.23361 22.5518 6.12842 21.9522 6.12842C19.1487 6.12842 16.8765 8.40065 16.8765 11.2041V11.4356V17.5422H18.8647L23.6669 6.42823Z" fill="#FFE97A"/>
<path d="M18.4388 29.3508C19.0285 29.3508 19.5066 28.8728 19.5066 28.2831C19.5066 27.6934 19.0285 27.2153 18.4388 27.2153C17.8491 27.2153 17.3711 27.6934 17.3711 28.2831C17.3711 28.8728 17.8491 29.3508 18.4388 29.3508Z" fill="#172B4D"/>
<path d="M23.3197 29.3508C23.9094 29.3508 24.3874 28.8728 24.3874 28.2831C24.3874 27.6934 23.9094 27.2153 23.3197 27.2153C22.73 27.2153 22.252 27.6934 22.252 28.2831C22.252 28.8728 22.73 29.3508 23.3197 29.3508Z" fill="#172B4D"/>
<path d="M25.7135 25.8687H14.7889C13.7053 25.8687 12.7481 25.1639 12.4272 24.1329L8.45605 11.4463L30.3795 11.4463C30.753 11.4463 31.037 11.7829 30.9792 12.1511L28.3907 23.607C28.1645 24.9166 27.0389 25.8687 25.7135 25.8687Z" fill="#0A9E60"/>
<path d="M10.344 11.4465L9.62342 9.23741C9.41302 8.59571 8.82393 8.16441 8.15067 8.15389H8.12437H7.42482H6.39916C6.07305 8.14863 5.81006 8.41162 5.81006 8.73772C5.81006 9.06383 6.07305 9.32682 6.39916 9.32682H7.793L8.45574 11.4518H10.344V11.4465Z" fill="white"/>
<path d="M7.79332 9.32647L7.57241 8.6427C7.55663 8.60062 7.51455 8.57432 7.47247 8.58484C7.42514 8.59536 7.39358 8.64796 7.40936 8.69529L7.48825 8.94777L7.02539 9.32647H7.79332Z" fill="#A2ACBD"/>
<path d="M16.8401 26.7791V25.8691H15.3306V26.7791V27.3629C15.3306 27.8731 15.7461 28.2886 16.2563 28.2886H16.8401H25.0612C25.4767 28.2886 25.8134 27.952 25.8134 27.5365C25.8134 27.121 25.4767 26.7843 25.0612 26.7843H16.8401V26.7791Z" fill="white"/>
<path d="M16.8398 26.7788V27.4889C16.8398 27.531 16.8767 27.5678 16.9187 27.5678C16.9608 27.5678 16.9976 27.531 16.9976 27.4889V27.2101L17.6341 26.7788H16.8398Z" fill="#A2ACBD"/>
<path d="M14.289 13.7983H12.1482C12.0536 13.7983 11.9904 13.8878 12.0167 13.9772L14.3416 21.241C14.3679 21.3146 14.4783 21.2988 14.4783 21.2199V13.9877C14.4836 13.8825 14.3942 13.7983 14.289 13.7983Z" fill="#087E4D"/>
<path d="M16.5928 14.0235V23.4754C16.5928 23.5859 16.6822 23.6805 16.7979 23.6805H18.5021C18.6125 23.6805 18.7072 23.5911 18.7072 23.4754V14.0235C18.7072 13.8973 18.6073 13.7974 18.481 13.7974H16.8189C16.6927 13.7974 16.5928 13.8973 16.5928 14.0235Z" fill="#087E4D"/>
<path d="M27.208 13.7974L25.2508 13.7974C25.1298 13.7974 25.0352 13.892 25.0352 14.013V23.1598C25.0352 23.2703 25.1667 23.3334 25.2561 23.265C25.6032 22.9862 25.8557 22.5918 25.9346 22.1289L27.6236 14.2813C27.6709 14.0288 27.471 13.7974 27.208 13.7974Z" fill="#087E4D"/>
<path d="M20.811 13.9815V23.4701C20.811 23.5806 20.9005 23.6753 21.0162 23.6753H22.7203C22.8308 23.6753 22.9255 23.5859 22.9255 23.4701V13.9815C22.9255 13.8763 22.8413 13.7974 22.7414 13.7974H21.0004C20.8952 13.7974 20.811 13.8763 20.811 13.9815Z" fill="#087E4D"/>
<path d="M19.5904 8.57959H14.1781C13.8572 8.57959 13.5942 8.84258 13.5942 9.16343V11.4409H20.1795V9.16343C20.1795 8.84258 19.9165 8.57959 19.5904 8.57959Z" fill="#01CFFF"/>
</svg>
