<svg width="37" height="35" viewBox="0 0 37 35" fill="none" xmlns="http://www.w3.org/2000/svg">
<path d="M36.6486 0H0V34.4139H36.6486V0Z" fill="#FA6800"/>
<path d="M11.6995 23.8881C12.7266 23.8881 13.5592 23.0612 13.5592 22.0412C13.5592 21.0212 12.7266 20.1943 11.6995 20.1943C10.6724 20.1943 9.83984 21.0212 9.83984 22.0412C9.83984 23.0612 10.6724 23.8881 11.6995 23.8881Z" fill="#081833"/>
<path d="M11.6994 22.9936C12.2292 22.9936 12.6586 22.5671 12.6586 22.041C12.6586 21.5149 12.2292 21.0884 11.6994 21.0884C11.1697 21.0884 10.7402 21.5149 10.7402 22.041C10.7402 22.5671 11.1697 22.9936 11.6994 22.9936Z" fill="white"/>
<path d="M11.7 22.8143C12.1194 22.8143 12.4595 22.4766 12.4595 22.06C12.4595 21.6434 12.1194 21.3057 11.7 21.3057C11.2805 21.3057 10.9404 21.6434 10.9404 22.06C10.9404 22.4766 11.2805 22.8143 11.7 22.8143Z" fill="#DEE4ED"/>
<path d="M7.0249 22.2313H21.4089V11.3133C21.4089 11.2356 21.3463 11.1772 21.2719 11.1772L7.16585 11.1733C7.08754 11.1733 7.0249 11.2356 7.0249 11.3094V22.2313Z" fill="#4CD5FF"/>
<path d="M21.4089 21.2939H7.0249V17.1764L21.4089 12.4756V21.2939Z" fill="#14CAFF"/>
<path d="M27.4971 19.7773H22.7363V22.2308H27.4971V19.7773Z" fill="#4740D4"/>
<path d="M28.2099 17.4721L26.8905 17.1455L26.1193 14.6921C25.9744 14.105 25.442 13.689 24.8312 13.689H21.7344V21.2903H23.0498C23.3474 20.4933 24.1187 19.9256 25.023 19.9256C25.9274 19.9256 26.7026 20.4933 26.9963 21.2903H29.1887V18.7047C29.2004 18.1176 28.7894 17.6043 28.2099 17.4721Z" fill="#6559FF"/>
<path d="M25.0189 23.8953C26.0503 23.8953 26.8864 23.065 26.8864 22.0407C26.8864 21.0164 26.0503 20.186 25.0189 20.186C23.9875 20.186 23.1514 21.0164 23.1514 22.0407C23.1514 23.065 23.9875 23.8953 25.0189 23.8953Z" fill="#081833"/>
<path d="M25.0188 22.997C25.5507 22.997 25.9819 22.5687 25.9819 22.0405C25.9819 21.5122 25.5507 21.084 25.0188 21.084C24.4869 21.084 24.0557 21.5122 24.0557 22.0405C24.0557 22.5687 24.4869 22.997 25.0188 22.997Z" fill="white"/>
<path d="M25.0188 22.8181C25.4405 22.8181 25.7823 22.4787 25.7823 22.0599C25.7823 21.6412 25.4405 21.3018 25.0188 21.3018C24.5972 21.3018 24.2554 21.6412 24.2554 22.0599C24.2554 22.4787 24.5972 22.8181 25.0188 22.8181Z" fill="#DEE4ED"/>
<path d="M22.9241 22.0137C22.9241 21.761 22.971 21.516 23.0533 21.2905H21.7378V22.2315H22.9358C22.928 22.1615 22.9241 22.0876 22.9241 22.0137Z" fill="#F0F0FF"/>
<path d="M29.2472 21.2905H27.0078C27.09 21.516 27.1292 21.7571 27.1292 22.0137C27.1292 22.0876 27.1253 22.1615 27.1174 22.2315H29.2472C29.3843 22.2315 29.4978 22.1187 29.4978 21.9826V21.5355C29.4939 21.4033 29.3843 21.2905 29.2472 21.2905Z" fill="#F0F0FF"/>
<path d="M26.3813 17.1768H23.2297C23.1866 17.1768 23.1475 17.1418 23.1475 17.0951V14.109C23.1475 14.0662 23.1827 14.0273 23.2297 14.0273H24.9014C25.2616 14.0273 25.5826 14.2606 25.6884 14.6028L26.4557 17.0718C26.4714 17.1262 26.4361 17.1768 26.3813 17.1768Z" fill="#DFF8FE"/>
<path d="M23.1475 17.0994C23.1475 17.1422 23.1827 17.181 23.2297 17.181H26.3813C26.4361 17.181 26.4753 17.1305 26.4596 17.0761L25.9624 15.478L23.1514 16.3956V17.0994H23.1475Z" fill="#ADEBFD"/>
<path d="M27.8298 19.0705H29.1961V18.9033H27.8298C27.7828 18.9033 27.7476 18.9422 27.7476 18.985C27.7476 19.0355 27.7828 19.0705 27.8298 19.0705Z" fill="#4740D4"/>
<path d="M27.8298 19.4943H29.1961V19.3271H27.8298C27.7828 19.3271 27.7476 19.366 27.7476 19.4088C27.7476 19.4555 27.7828 19.4943 27.8298 19.4943Z" fill="#4740D4"/>
<path d="M27.8298 19.9177H29.1961V19.7505H27.8298C27.7828 19.7505 27.7476 19.7894 27.7476 19.8321C27.7476 19.8788 27.7828 19.9177 27.8298 19.9177Z" fill="#4740D4"/>
<path d="M29.2079 20.9558H27.8376C27.7906 20.9558 27.7476 20.9169 27.7476 20.8664V20.2559C27.7476 20.2093 27.7867 20.1665 27.8376 20.1665H29.2079C29.3097 20.1665 29.3919 20.2482 29.3919 20.3492V20.7653C29.3919 20.8741 29.3097 20.9558 29.2079 20.9558Z" fill="#FFF4B2"/>
<path d="M27.2541 15.3417H26.933L26.6355 14.3191H25.6606V14.0625H26.9918C27.0583 14.0625 27.1131 14.1053 27.1327 14.1714L27.395 15.159C27.4185 15.2523 27.352 15.3417 27.2541 15.3417Z" fill="#6559FF"/>
<path d="M26.5537 14.3188H26.6359L26.9335 15.3414H26.8552L26.5537 14.3188Z" fill="#4740D4"/>
<path d="M21.8435 12.7905H23.5192C23.8911 12.7905 24.1965 13.0899 24.1965 13.4632V13.6887H21.7378V12.8955C21.7378 12.8372 21.7848 12.7905 21.8435 12.7905Z" fill="#4740D4"/>
<path d="M21.4092 22.2314H6.95467C6.81764 22.2314 6.7041 22.1187 6.7041 21.9826V21.5355C6.7041 21.3994 6.81764 21.2866 6.95467 21.2866H21.4092V22.2314Z" fill="#F0F0FF"/>
<path d="M6.89202 20.9558H8.59116C8.63815 20.9558 8.68121 20.9169 8.68121 20.8664V20.2559C8.68121 20.2093 8.64206 20.1665 8.59116 20.1665H6.89202C6.79022 20.1665 6.70801 20.2482 6.70801 20.3492V20.7653C6.70801 20.8741 6.79022 20.9558 6.89202 20.9558Z" fill="#FFF4B2"/>
<path d="M21.4091 20.4463H8.68115V20.6796H21.4091V20.4463Z" fill="#6559FF"/>
</svg>
