<svg width="156" height="159" viewBox="0 0 156 159" fill="none" xmlns="http://www.w3.org/2000/svg">
<rect width="156" height="159" rx="13" fill="#1E0078"/>
<mask id="mask0" mask-type="alpha" maskUnits="userSpaceOnUse" x="0" y="0" width="156" height="159">
<rect width="156" height="159" rx="13" fill="#4740D4"/>
</mask>
<g mask="url(#mask0)">
<path d="M34.5327 215.076C57.5977 238.234 94.2368 239.453 118.847 218.843L119.178 218.511C120.502 217.403 121.716 216.295 122.93 215.076C124.144 213.857 125.248 212.638 126.351 211.309L493.956 -157.785C495.28 -158.893 496.494 -160.001 497.708 -161.219C522.097 -185.707 522.097 -225.487 497.708 -249.975C474.312 -273.465 437.121 -274.352 412.511 -252.856L412.401 -252.966L30.6702 130.31L-9.61072 170.754L34.5327 215.076Z" fill="#00DAFF"/>
<path d="M-143.71 36.1229L-9.62435 170.752L78.7729 81.9963L-55.3128 -52.6324C-79.7021 -77.1204 -119.321 -77.1204 -143.71 -52.6324C-168.099 -28.1443 -168.099 11.6348 -143.71 36.1229Z" fill="#5A59FF"/>
</g>
</svg>
