<svg width="156" height="159" viewBox="0 0 156 159" fill="none" xmlns="http://www.w3.org/2000/svg">
<rect width="156" height="159" rx="13" fill="#1E0078"/>
<mask id="mask0" mask-type="alpha" maskUnits="userSpaceOnUse" x="0" y="0" width="156" height="159">
<rect width="156" height="159" rx="13" fill="#4740D4"/>
</mask>
<g mask="url(#mask0)">
<path d="M121.467 62.3497C98.4023 39.1914 61.7632 37.9725 37.1532 58.5823L36.8221 58.9147C35.4978 60.0228 34.2838 61.1309 33.0699 62.3497C31.856 63.5686 30.7524 64.8982 29.6488 66.1171L-337.956 435.21C-339.28 436.318 -340.494 437.426 -341.708 438.645C-366.097 463.133 -366.097 502.912 -341.708 527.4C-318.312 550.891 -281.121 551.778 -256.511 530.281L-256.401 530.392L125.33 147.227L165.611 106.783L121.467 62.3497Z" fill="#FED800"/>
<path d="M299.814 241.411L165.728 106.782L77.3306 195.537L211.416 330.166C235.806 354.654 275.424 354.654 299.814 330.166C324.203 305.567 324.203 265.899 299.814 241.411Z" fill="#0AAD6A"/>
</g>
</svg>
