<svg width="156" height="159" viewBox="0 0 156 159" fill="none" xmlns="http://www.w3.org/2000/svg">
<rect width="156" height="159" rx="13" fill="#1E0078"/>
<mask id="mask0" mask-type="alpha" maskUnits="userSpaceOnUse" x="0" y="0" width="156" height="159">
<rect width="156" height="159" rx="13" fill="#4740D4"/>
</mask>
<g mask="url(#mask0)">
<path d="M-120.878 419.364C-105.985 434.317 -82.3274 435.104 -66.437 421.796L-66.2232 421.582C-65.3681 420.866 -64.5843 420.151 -63.8005 419.364C-63.0166 418.577 -62.3041 417.79 -61.5915 416.931L175.766 178.612C176.621 177.897 177.405 177.181 178.189 176.394C193.937 160.583 193.937 134.898 178.189 119.086C163.082 103.918 139.069 103.346 123.178 117.226L123.107 117.154L-123.371 364.631L-149.38 390.745L-120.878 419.364Z" fill="#00DAFF"/>
<path d="M62.0333 2.4656L-24.5442 -84.4624L-81.6212 -27.1543L4.95633 59.7737C20.7042 75.5853 46.2855 75.5853 62.0334 59.7737C77.7812 43.8906 77.7812 18.2772 62.0333 2.4656Z" fill="#0AAD6A"/>
</g>
</svg>
