<svg width="156" height="159" viewBox="0 0 156 159" fill="none" xmlns="http://www.w3.org/2000/svg">
<rect width="156" height="159" rx="13" fill="#1E0078"/>
<mask id="mask0" mask-type="alpha" maskUnits="userSpaceOnUse" x="0" y="0" width="156" height="159">
<rect width="156" height="159" rx="13" fill="#4740D4"/>
</mask>
<g mask="url(#mask0)">
<path d="M9.46723 -0.650265C-13.5977 -23.8086 -50.2368 -25.0275 -74.8468 -4.41768L-75.1779 -4.08529C-76.5022 -2.97722 -77.7162 -1.8691 -78.9301 -0.650257C-80.144 0.568615 -81.2476 1.89824 -82.3512 3.11711L-449.956 372.21C-451.28 373.318 -452.494 374.426 -453.708 375.645C-478.097 400.133 -478.097 439.912 -453.708 464.4C-430.312 487.891 -393.121 488.778 -368.511 467.281L-368.401 467.392L13.3298 84.2267L53.6107 43.7827L9.46723 -0.650265Z" fill="#FED800"/>
<path d="M187.814 178.411L53.7279 43.782L-34.6694 132.537L99.4164 267.166C123.806 291.654 163.424 291.654 187.814 267.166C212.203 242.567 212.203 202.899 187.814 178.411Z" fill="#0AAD6A"/>
</g>
</svg>
