<svg width="156" height="159" viewBox="0 0 156 159" fill="none" xmlns="http://www.w3.org/2000/svg">
<rect width="156" height="159" rx="13" fill="#1E0078"/>
<mask id="mask0" mask-type="alpha" maskUnits="userSpaceOnUse" x="0" y="0" width="156" height="159">
<rect width="156" height="159" rx="13" fill="#4740D4"/>
</mask>
<g mask="url(#mask0)">
<path d="M122.467 -55.6503C99.4023 -78.8086 62.7632 -80.0275 38.1532 -59.4177L37.8221 -59.0853C36.4978 -57.9772 35.2838 -56.8691 34.0699 -55.6503C32.856 -54.4314 31.7524 -53.1018 30.6488 -51.8829L-336.956 317.21C-338.28 318.318 -339.494 319.426 -340.708 320.645C-365.097 345.133 -365.097 384.912 -340.708 409.4C-317.312 432.891 -280.121 433.778 -255.511 412.281L-255.401 412.392L126.33 29.2267L166.611 -11.2173L122.467 -55.6503Z" fill="#FED800"/>
<path d="M300.814 123.411L166.728 -11.218L78.3306 77.5372L212.416 212.166C236.806 236.654 276.424 236.654 300.814 212.166C325.203 187.567 325.203 147.899 300.814 123.411Z" fill="#0AAD6A"/>
</g>
</svg>
