<svg width="156" height="159" viewBox="0 0 156 159" fill="none" xmlns="http://www.w3.org/2000/svg">
<rect width="156" height="159" rx="13" fill="#1E0078"/>
<mask id="mask0" mask-type="alpha" maskUnits="userSpaceOnUse" x="0" y="0" width="156" height="159">
<rect width="156" height="159" rx="13" fill="#4740D4"/>
</mask>
<g mask="url(#mask0)">
<path d="M150.533 160.076C173.598 183.234 210.237 184.453 234.847 163.843L235.178 163.511C236.502 162.403 237.716 161.295 238.93 160.076C240.144 158.857 241.248 157.638 242.351 156.309L609.956 -212.785C611.28 -213.893 612.494 -215.001 613.708 -216.219C638.097 -240.707 638.097 -280.487 613.708 -304.975C590.312 -328.465 553.121 -329.352 528.511 -307.856L528.401 -307.966L146.67 75.3098L106.389 115.754L150.533 160.076Z" fill="#00DAFF"/>
<path d="M-27.7101 -18.8771L106.376 115.752L194.773 26.9963L60.6872 -107.632C36.2979 -132.12 -3.32084 -132.12 -27.7101 -107.632C-52.0994 -83.1443 -52.0994 -43.3652 -27.7101 -18.8771Z" fill="#5A59FF"/>
</g>
</svg>
